<?xml version="1.0" encoding="utf-8"?>
<!-- Generator: Adobe Illustrator 24.1.1, SVG Export Plug-In . SVG Version: 6.00 Build 0)  -->
<svg version="1.1" id="Ebene_1" xmlns="http://www.w3.org/2000/svg" x="0px"
     y="0px"
     viewBox="0 0 4460.3 1108.9" style="enable-background:new 0 0 4460.3 1108.9;" xml:space="preserve">
<style type="text/css">
	.st0{enable-background:new    ;}
	.st1{fill:none;stroke:#808080;stroke-width:2;stroke-miterlimit:10;}
	.st2{fill:#808080;}
	.st3{fill:none;stroke:#808080;stroke-miterlimit:10;}
	.st4{fill:none;stroke:#808080;stroke-width:20;stroke-miterlimit:10;}
	.st5{fill:none;}
	.st6{fill:none;stroke:#808080;stroke-width:2;stroke-miterlimit:10;stroke-dasharray:12,18,12,18,12,18;}
	
		.st7{fill:none;stroke:#808080;stroke-width:2;stroke-miterlimit:10;stroke-dasharray:12.6736,6.3368,12.6736,6.3368,12.6736,6.3368;}
</style>
    <g class="st0">
	<path d="M646.7,111.2h9.2l10.7,40.1c0.5,1.8,0.9,3.5,1.4,5.3c0.5,1.8,0.9,3.4,1.3,5.1c0.4,1.6,0.7,3.2,1,4.7c0.3,1.5,0.5,2.8,0.7,4
		c0.1-1.2,0.3-2.5,0.5-3.9s0.4-2.9,0.7-4.4c0.3-1.5,0.5-3.1,0.8-4.7c0.3-1.6,0.6-3.2,1-4.7l9.4-41.3h9.3l-17.2,68.5h-8.8l-11.9-44
		c-0.4-1.6-0.9-3.2-1.3-4.9c-0.4-1.7-0.8-3.3-1.1-4.7c-0.4-1.7-0.7-3.4-1.1-5c-0.3,1.6-0.7,3.3-1,5c-0.3,1.5-0.7,3.1-1.1,4.8
		c-0.4,1.8-0.8,3.5-1.2,5.2l-11.3,43.7h-8.8l-18.1-68.5h9.2l10.5,41.7c0.4,1.4,0.7,2.9,1,4.5c0.3,1.5,0.6,3.1,0.9,4.6
		c0.3,1.5,0.5,3,0.7,4.4c0.2,1.4,0.4,2.7,0.6,3.9c0.2-1.2,0.4-2.5,0.6-4s0.5-3.1,0.8-4.8c0.3-1.7,0.6-3.4,1-5.1
		c0.4-1.7,0.7-3.4,1.1-4.9L646.7,111.2z"/>
        <path d="M720.2,180.7c-3.4,0-6.6-0.6-9.4-1.7c-2.8-1.2-5.3-2.8-7.3-5.1c-2-2.2-3.6-5-4.8-8.3s-1.7-7-1.7-11.3c0-4.3,0.5-8,1.5-11.4
		s2.5-6.2,4.4-8.5s4.1-4.1,6.7-5.3c2.6-1.2,5.5-1.8,8.6-1.8c3.1,0,5.9,0.6,8.3,1.7c2.5,1.1,4.6,2.7,6.3,4.7c1.7,2,3,4.4,4,7.3
		c0.9,2.8,1.4,6,1.4,9.4v5.3h-32.4c0.2,6,1.4,10.5,3.8,13.3s5.9,4.3,10.7,4.3c1.6,0,3.1-0.1,4.4-0.2s2.7-0.4,3.9-0.7
		s2.5-0.7,3.7-1.1c1.2-0.5,2.4-1,3.6-1.5v7.6c-1.3,0.6-2.5,1.1-3.7,1.5c-1.2,0.4-2.4,0.8-3.7,1.1s-2.6,0.5-3.9,0.6
		S721.8,180.7,720.2,180.7z M718.1,134.4c-3.6,0-6.4,1.2-8.5,3.7c-2.1,2.4-3.3,6-3.6,10.6h23.1c0-2.1-0.2-4.1-0.6-5.8
		s-1.1-3.3-2-4.5s-2-2.2-3.4-2.9C721.7,134.8,720.1,134.4,718.1,134.4z"/>
        <path d="M773.5,127.3c0.9,0,1.9,0,3,0.1s2.1,0.2,2.9,0.4l-1.1,7.9c-0.9-0.2-1.8-0.3-2.7-0.4c-0.9-0.1-1.8-0.2-2.6-0.2
		c-2,0-3.8,0.4-5.4,1.2c-1.6,0.8-3,1.9-4.2,3.4s-2.1,3.3-2.7,5.3c-0.6,2.1-1,4.4-1,6.9v27.8h-8.5v-51.5h6.9l1,9.4h0.4
		c0.8-1.3,1.6-2.6,2.5-3.9s1.9-2.4,3-3.3c1.1-1,2.4-1.7,3.7-2.3C770.2,127.6,771.8,127.3,773.5,127.3z"/>
        <path d="M797.4,153.2l6.3-8l13.7-16.9h9.9l-18.8,22.3l20.1,29.2h-9.8l-15.8-23.6L798,160v19.8h-8.4v-72.9h8.4v33.5l-0.8,12.9H797.4
		z"/>
        <path d="M857.5,180.7c-3.4,0-6.6-0.6-9.4-1.7c-2.8-1.2-5.3-2.8-7.3-5.1c-2-2.2-3.6-5-4.8-8.3s-1.7-7-1.7-11.3c0-4.3,0.5-8,1.5-11.4
		s2.5-6.2,4.4-8.5s4.1-4.1,6.7-5.3c2.6-1.2,5.5-1.8,8.6-1.8c3.1,0,5.9,0.6,8.3,1.7c2.5,1.1,4.6,2.7,6.3,4.7c1.7,2,3,4.4,4,7.3
		c0.9,2.8,1.4,6,1.4,9.4v5.3h-32.4c0.2,6,1.4,10.5,3.8,13.3s5.9,4.3,10.7,4.3c1.6,0,3.1-0.1,4.4-0.2s2.7-0.4,3.9-0.7
		s2.5-0.7,3.7-1.1c1.2-0.5,2.4-1,3.6-1.5v7.6c-1.3,0.6-2.5,1.1-3.7,1.5c-1.2,0.4-2.4,0.8-3.7,1.1s-2.6,0.5-3.9,0.6
		S859.1,180.7,857.5,180.7z M855.4,134.4c-3.6,0-6.4,1.2-8.5,3.7c-2.1,2.4-3.3,6-3.6,10.6h23.1c0-2.1-0.2-4.1-0.6-5.8
		s-1.1-3.3-2-4.5s-2-2.2-3.4-2.9C859,134.8,857.4,134.4,855.4,134.4z"/>
        <path d="M920.3,172.9H920c-0.7,1.1-1.5,2.1-2.4,3c-0.9,1-2,1.8-3.2,2.5c-1.2,0.7-2.6,1.3-4.1,1.7s-3.2,0.6-5.1,0.6
		c-2.9,0-5.6-0.6-8-1.7c-2.4-1.1-4.5-2.8-6.2-5c-1.7-2.2-3-5-4-8.3s-1.4-7.2-1.4-11.5c0-4.4,0.5-8.3,1.4-11.6s2.3-6.1,4-8.4
		c1.7-2.3,3.8-3.9,6.2-5.1c2.4-1.1,5.1-1.7,8-1.7c1.8,0,3.5,0.2,5,0.6s2.9,1,4.1,1.6c1.2,0.7,2.3,1.5,3.2,2.4s1.8,1.9,2.4,2.9h0.6
		c-0.1-1.1-0.2-2.1-0.3-3c-0.1-0.8-0.1-1.6-0.2-2.5c-0.1-0.9-0.1-1.5-0.1-2v-20.4h8.5v72.9h-6.9L920.3,172.9z M906.9,173.6
		c2.4,0,4.4-0.4,6-1.1s3-1.8,4-3.3c1-1.5,1.8-3.3,2.3-5.5c0.5-2.2,0.8-4.8,0.8-7.7v-1.9c0-3.2-0.2-6-0.6-8.4s-1.1-4.5-2.2-6.2
		c-1-1.7-2.4-2.9-4.1-3.8s-3.8-1.3-6.3-1.3c-4.2,0-7.3,1.7-9.3,5.1c-2,3.4-3,8.3-3,14.7c0,6.5,1,11.4,3,14.6
		C899.5,172,902.6,173.6,906.9,173.6z"/>
        <path d="M944.1,114.4c0-1.9,0.5-3.2,1.4-4.1c1-0.8,2.1-1.3,3.5-1.3c0.7,0,1.3,0.1,1.9,0.3s1.1,0.5,1.6,1c0.5,0.4,0.8,1,1.1,1.7
		c0.3,0.7,0.4,1.5,0.4,2.4c0,1.8-0.5,3.2-1.5,4.1s-2.2,1.3-3.5,1.3c-1.4,0-2.6-0.4-3.5-1.3C944.6,117.6,944.1,116.2,944.1,114.4z
		 M953.3,179.7h-8.5v-51.5h8.5V179.7z"/>
        <path d="M985.2,173.7c0.6,0,1.2,0,1.9-0.1s1.4-0.1,2-0.2s1.3-0.2,1.8-0.3c0.5-0.1,1-0.2,1.2-0.3v6.5c-0.4,0.2-0.9,0.4-1.5,0.6
		c-0.6,0.2-1.3,0.4-2.1,0.5s-1.5,0.3-2.3,0.3c-0.8,0.1-1.6,0.1-2.4,0.1c-1.9,0-3.7-0.3-5.4-0.8c-1.7-0.5-3.1-1.4-4.3-2.6
		c-1.2-1.2-2.1-2.9-2.8-4.9c-0.7-2.1-1-4.7-1-7.9v-29.9H963v-3.8l7.3-3.7l3.7-10.8h4.9v11.8h12.9v6.4h-12.9v29.9
		c0,3,0.5,5.3,1.5,6.8S983,173.7,985.2,173.7z"/>
        <path d="M1001.5,114.4c0-1.9,0.5-3.2,1.4-4.1c1-0.8,2.1-1.3,3.5-1.3c0.7,0,1.3,0.1,1.9,0.3s1.1,0.5,1.6,1c0.5,0.4,0.8,1,1.1,1.7
		c0.3,0.7,0.4,1.5,0.4,2.4c0,1.8-0.5,3.2-1.5,4.1s-2.2,1.3-3.5,1.3c-1.4,0-2.6-0.4-3.5-1.3C1002,117.6,1001.5,116.2,1001.5,114.4z
		 M1010.7,179.7h-8.5v-51.5h8.5V179.7z"/>
        <path d="M1069,153.9c0,4.3-0.5,8.1-1.6,11.4c-1,3.3-2.5,6.1-4.5,8.4c-2,2.3-4.3,4-7.1,5.2c-2.8,1.2-5.9,1.8-9.4,1.8
		c-3.2,0-6.2-0.6-8.9-1.8s-5.1-2.9-7.1-5.2c-2-2.3-3.5-5.1-4.6-8.4c-1.1-3.3-1.7-7.1-1.7-11.4c0-4.3,0.5-8,1.6-11.3
		c1-3.3,2.5-6.1,4.5-8.3c1.9-2.3,4.3-4,7.1-5.2c2.8-1.2,5.9-1.8,9.4-1.8c3.2,0,6.2,0.6,8.9,1.8s5.1,2.9,7.1,5.2c2,2.3,3.5,5,4.6,8.3
		C1068.4,145.9,1069,149.7,1069,153.9z M1033,153.9c0,6.5,1.1,11.4,3.2,14.7c2.1,3.3,5.6,4.9,10.4,4.9c4.8,0,8.3-1.6,10.4-4.9
		s3.2-8.2,3.2-14.7s-1.1-11.4-3.2-14.6c-2.1-3.2-5.6-4.9-10.4-4.9c-4.8,0-8.3,1.6-10.4,4.9S1033,147.4,1033,153.9z"/>
        <path d="M1114.6,179.7v-33.1c0-4.1-0.8-7.1-2.5-9.1s-4.2-3-7.7-3c-2.5,0-4.7,0.4-6.4,1.2c-1.7,0.8-3.1,2-4.1,3.6
		c-1,1.6-1.8,3.5-2.3,5.9c-0.5,2.3-0.7,5-0.7,8v26.7h-8.5v-51.5h6.9l1.2,6.9h0.5c0.8-1.3,1.7-2.5,2.8-3.5s2.3-1.8,3.5-2.5
		c1.3-0.7,2.6-1.1,4.1-1.5c1.4-0.3,2.9-0.5,4.4-0.5c5.7,0,10,1.5,12.9,4.5c2.9,3,4.3,7.8,4.3,14.3v33.6H1114.6z"/>
        <path d="M1159.3,180.7c-3.4,0-6.6-0.6-9.4-1.7c-2.8-1.2-5.3-2.8-7.3-5.1c-2-2.2-3.6-5-4.8-8.3s-1.7-7-1.7-11.3
		c0-4.3,0.5-8,1.5-11.4s2.5-6.2,4.4-8.5s4.1-4.1,6.7-5.3c2.6-1.2,5.5-1.8,8.6-1.8c3.1,0,5.9,0.6,8.3,1.7c2.5,1.1,4.6,2.7,6.3,4.7
		c1.7,2,3,4.4,4,7.3c0.9,2.8,1.4,6,1.4,9.4v5.3h-32.4c0.2,6,1.4,10.5,3.8,13.3s5.9,4.3,10.7,4.3c1.6,0,3.1-0.1,4.4-0.2
		s2.7-0.4,3.9-0.7s2.5-0.7,3.7-1.1c1.2-0.5,2.4-1,3.6-1.5v7.6c-1.3,0.6-2.5,1.1-3.7,1.5c-1.2,0.4-2.4,0.8-3.7,1.1s-2.6,0.5-3.9,0.6
		S1160.9,180.7,1159.3,180.7z M1157.2,134.4c-3.6,0-6.4,1.2-8.5,3.7c-2.1,2.4-3.3,6-3.6,10.6h23.1c0-2.1-0.2-4.1-0.6-5.8
		s-1.1-3.3-2-4.5s-2-2.2-3.4-2.9C1160.8,134.8,1159.1,134.4,1157.2,134.4z"/>
        <path d="M1222.5,179.7v-33.1c0-4.1-0.8-7.1-2.5-9.1s-4.2-3-7.7-3c-2.5,0-4.7,0.4-6.4,1.2c-1.7,0.8-3.1,2-4.1,3.6
		c-1,1.6-1.8,3.5-2.3,5.9c-0.5,2.3-0.7,5-0.7,8v26.7h-8.5v-51.5h6.9l1.2,6.9h0.5c0.8-1.3,1.7-2.5,2.8-3.5s2.3-1.8,3.5-2.5
		c1.3-0.7,2.6-1.1,4.1-1.5c1.4-0.3,2.9-0.5,4.4-0.5c5.7,0,10,1.5,12.9,4.5c2.9,3,4.3,7.8,4.3,14.3v33.6H1222.5z"/>
</g>
    <g class="st0">
	<path d="M1854,177.9h-8.8V117h-19.6v-7.7h47.9v7.7H1854V177.9z"/>
        <path d="M1897.3,178.8c-3.4,0-6.6-0.6-9.4-1.7c-2.8-1.2-5.3-2.8-7.3-5.1c-2-2.2-3.6-5-4.8-8.3s-1.7-7-1.7-11.3
		c0-4.3,0.5-8,1.5-11.4s2.5-6.2,4.4-8.5s4.1-4.1,6.7-5.3c2.6-1.2,5.5-1.8,8.6-1.8c3.1,0,5.9,0.6,8.3,1.7c2.5,1.1,4.6,2.7,6.3,4.7
		c1.7,2,3,4.4,4,7.3c0.9,2.8,1.4,6,1.4,9.4v5.3h-32.4c0.2,6,1.4,10.5,3.8,13.3s5.9,4.3,10.7,4.3c1.6,0,3.1-0.1,4.4-0.2
		s2.7-0.4,3.9-0.7s2.5-0.7,3.7-1.1c1.2-0.5,2.4-1,3.6-1.5v7.6c-1.3,0.6-2.5,1.1-3.7,1.5c-1.2,0.4-2.4,0.8-3.7,1.1s-2.6,0.5-3.9,0.6
		S1898.9,178.8,1897.3,178.8z M1895.2,132.5c-3.6,0-6.4,1.2-8.5,3.7c-2.1,2.4-3.3,6-3.6,10.6h23.1c0-2.1-0.2-4.1-0.6-5.8
		s-1.1-3.3-2-4.5s-2-2.2-3.4-2.9C1898.8,132.9,1897.1,132.5,1895.2,132.5z"/>
        <path d="M1939.3,151.5l-16.5-25.1h9.7l11.7,19.2l11.7-19.2h9.7l-16.6,25.1l17.5,26.4h-9.7l-12.6-20.4l-12.7,20.4h-9.7L1939.3,151.5
		z"/>
        <path d="M1991.9,171.8c0.6,0,1.2,0,1.9-0.1s1.4-0.1,2-0.2s1.3-0.2,1.8-0.3c0.5-0.1,1-0.2,1.2-0.3v6.5c-0.4,0.2-0.9,0.4-1.5,0.6
		c-0.6,0.2-1.3,0.4-2.1,0.5s-1.5,0.3-2.3,0.3c-0.8,0.1-1.6,0.1-2.4,0.1c-1.9,0-3.7-0.3-5.4-0.8c-1.7-0.5-3.1-1.4-4.3-2.6
		c-1.2-1.2-2.1-2.9-2.8-4.9c-0.7-2.1-1-4.7-1-7.9v-29.9h-7.3V129l7.3-3.7l3.7-10.8h4.9v11.8h12.9v6.4h-12.9v29.9
		c0,3,0.5,5.3,1.5,6.8S1989.6,171.8,1991.9,171.8z"/>
        <path d="M2029.2,178.8c-3.4,0-6.6-0.6-9.4-1.7c-2.8-1.2-5.3-2.8-7.3-5.1c-2-2.2-3.6-5-4.8-8.3s-1.7-7-1.7-11.3
		c0-4.3,0.5-8,1.5-11.4s2.5-6.2,4.4-8.5s4.1-4.1,6.7-5.3c2.6-1.2,5.5-1.8,8.6-1.8c3.1,0,5.9,0.6,8.3,1.7c2.5,1.1,4.6,2.7,6.3,4.7
		c1.7,2,3,4.4,4,7.3c0.9,2.8,1.4,6,1.4,9.4v5.3h-32.4c0.2,6,1.4,10.5,3.8,13.3s5.9,4.3,10.7,4.3c1.6,0,3.1-0.1,4.4-0.2
		s2.7-0.4,3.9-0.7s2.5-0.7,3.7-1.1c1.2-0.5,2.4-1,3.6-1.5v7.6c-1.3,0.6-2.5,1.1-3.7,1.5c-1.2,0.4-2.4,0.8-3.7,1.1s-2.6,0.5-3.9,0.6
		S2030.8,178.8,2029.2,178.8z M2027.1,132.5c-3.6,0-6.4,1.2-8.5,3.7c-2.1,2.4-3.3,6-3.6,10.6h23.1c0-2.1-0.2-4.1-0.6-5.8
		s-1.1-3.3-2-4.5s-2-2.2-3.4-2.9C2030.7,132.9,2029,132.5,2027.1,132.5z"/>
        <path d="M2092,171h-0.4c-0.7,1.1-1.5,2.1-2.4,3c-0.9,1-2,1.8-3.2,2.5c-1.2,0.7-2.6,1.3-4.1,1.7s-3.2,0.6-5.1,0.6
		c-2.9,0-5.6-0.6-8-1.7c-2.4-1.1-4.5-2.8-6.2-5c-1.7-2.2-3-5-4-8.3s-1.4-7.2-1.4-11.5c0-4.4,0.5-8.3,1.4-11.6s2.3-6.1,4-8.4
		c1.7-2.3,3.8-3.9,6.2-5.1c2.4-1.1,5.1-1.7,8-1.7c1.8,0,3.5,0.2,5,0.6s2.9,1,4.1,1.6c1.2,0.7,2.3,1.5,3.2,2.4s1.8,1.9,2.4,2.9h0.6
		c-0.1-1.1-0.2-2.1-0.3-3c-0.1-0.8-0.1-1.6-0.2-2.5c-0.1-0.9-0.1-1.5-0.1-2v-20.4h8.5v72.9h-6.9L2092,171z M2078.6,171.7
		c2.4,0,4.4-0.4,6-1.1s3-1.8,4-3.3c1-1.5,1.8-3.3,2.3-5.5c0.5-2.2,0.8-4.8,0.8-7.7v-1.9c0-3.2-0.2-6-0.6-8.4s-1.1-4.5-2.2-6.2
		c-1-1.7-2.4-2.9-4.1-3.8s-3.8-1.3-6.3-1.3c-4.2,0-7.3,1.7-9.3,5.1c-2,3.4-3,8.3-3,14.7c0,6.5,1,11.4,3,14.6
		C2071.2,170.1,2074.3,171.7,2078.6,171.7z"/>
        <path d="M2115.8,112.5c0-1.9,0.5-3.2,1.4-4.1c1-0.8,2.1-1.3,3.5-1.3c0.7,0,1.3,0.1,1.9,0.3s1.1,0.5,1.6,1c0.5,0.4,0.8,1,1.1,1.7
		c0.3,0.7,0.4,1.5,0.4,2.4c0,1.8-0.5,3.2-1.5,4.1s-2.2,1.3-3.5,1.3c-1.4,0-2.6-0.4-3.5-1.3C2116.3,115.7,2115.8,114.3,2115.8,112.5z
		 M2125,177.9h-8.5v-51.5h8.5V177.9z"/>
        <path d="M2156.9,171.8c0.6,0,1.2,0,1.9-0.1s1.4-0.1,2-0.2s1.3-0.2,1.8-0.3c0.5-0.1,1-0.2,1.2-0.3v6.5c-0.4,0.2-0.9,0.4-1.5,0.6
		c-0.6,0.2-1.3,0.4-2.1,0.5s-1.5,0.3-2.3,0.3c-0.8,0.1-1.6,0.1-2.4,0.1c-1.9,0-3.7-0.3-5.4-0.8c-1.7-0.5-3.1-1.4-4.3-2.6
		c-1.2-1.2-2.1-2.9-2.8-4.9c-0.7-2.1-1-4.7-1-7.9v-29.9h-7.3V129l7.3-3.7l3.7-10.8h4.9v11.8h12.9v6.4h-12.9v29.9
		c0,3,0.5,5.3,1.5,6.8S2154.6,171.8,2156.9,171.8z"/>
        <path d="M2173.2,112.5c0-1.9,0.5-3.2,1.4-4.1c1-0.8,2.1-1.3,3.5-1.3c0.7,0,1.3,0.1,1.9,0.3s1.1,0.5,1.6,1c0.5,0.4,0.8,1,1.1,1.7
		c0.3,0.7,0.4,1.5,0.4,2.4c0,1.8-0.5,3.2-1.5,4.1s-2.2,1.3-3.5,1.3c-1.4,0-2.6-0.4-3.5-1.3C2173.7,115.7,2173.2,114.3,2173.2,112.5z
		 M2182.4,177.9h-8.5v-51.5h8.5V177.9z"/>
        <path d="M2240.7,152c0,4.3-0.5,8.1-1.6,11.4s-2.5,6.1-4.5,8.4s-4.3,4-7.1,5.2c-2.8,1.2-5.9,1.8-9.4,1.8c-3.2,0-6.2-0.6-8.9-1.8
		s-5.1-2.9-7.1-5.2c-2-2.3-3.5-5.1-4.6-8.4c-1.1-3.3-1.7-7.1-1.7-11.4c0-4.3,0.5-8,1.6-11.3c1-3.3,2.5-6.1,4.5-8.3
		c1.9-2.3,4.3-4,7.1-5.2c2.8-1.2,5.9-1.8,9.4-1.8c3.2,0,6.2,0.6,8.9,1.8c2.7,1.2,5.1,2.9,7.1,5.2s3.5,5,4.6,8.3
		S2240.7,147.8,2240.7,152z M2204.7,152c0,6.5,1.1,11.4,3.2,14.7c2.1,3.3,5.6,4.9,10.4,4.9c4.8,0,8.3-1.6,10.4-4.9
		c2.1-3.3,3.2-8.2,3.2-14.7s-1.1-11.4-3.2-14.6c-2.1-3.2-5.6-4.9-10.4-4.9c-4.8,0-8.3,1.6-10.4,4.9S2204.7,145.5,2204.7,152z"/>
        <path d="M2286.3,177.9v-33.1c0-4.1-0.8-7.1-2.5-9.1s-4.2-3-7.7-3c-2.5,0-4.7,0.4-6.4,1.2s-3.1,2-4.1,3.6s-1.8,3.5-2.3,5.9
		s-0.7,5-0.7,8v26.7h-8.5v-51.5h6.9l1.2,6.9h0.5c0.8-1.3,1.7-2.5,2.8-3.5s2.3-1.8,3.5-2.5s2.6-1.1,4.1-1.5s2.9-0.5,4.4-0.5
		c5.7,0,10,1.5,12.9,4.5s4.3,7.8,4.3,14.3v33.6H2286.3z"/>
        <path d="M2331,178.8c-3.4,0-6.6-0.6-9.4-1.7s-5.3-2.8-7.3-5.1s-3.6-5-4.8-8.3s-1.7-7-1.7-11.3c0-4.3,0.5-8,1.5-11.4
		s2.5-6.2,4.4-8.5s4.1-4.1,6.7-5.3s5.5-1.8,8.6-1.8c3.1,0,5.9,0.6,8.3,1.7s4.6,2.7,6.3,4.7s3,4.4,4,7.3s1.4,6,1.4,9.4v5.3h-32.4
		c0.2,6,1.4,10.5,3.8,13.3s5.9,4.3,10.7,4.3c1.6,0,3.1-0.1,4.4-0.2s2.7-0.4,3.9-0.7s2.5-0.7,3.7-1.1s2.4-1,3.6-1.5v7.6
		c-1.3,0.6-2.5,1.1-3.7,1.5s-2.4,0.8-3.7,1.1s-2.6,0.5-3.9,0.6S2332.6,178.8,2331,178.8z M2328.9,132.5c-3.6,0-6.4,1.2-8.5,3.7
		s-3.3,6-3.6,10.6h23.1c0-2.1-0.2-4.1-0.6-5.8s-1.1-3.3-2-4.5s-2-2.2-3.4-2.9S2330.8,132.5,2328.9,132.5z"/>
        <path d="M2394.2,177.9v-33.1c0-4.1-0.8-7.1-2.5-9.1s-4.2-3-7.7-3c-2.5,0-4.7,0.4-6.4,1.2s-3.1,2-4.1,3.6s-1.8,3.5-2.3,5.9
		s-0.7,5-0.7,8v26.7h-8.5v-51.5h6.9l1.2,6.9h0.5c0.8-1.3,1.7-2.5,2.8-3.5s2.3-1.8,3.5-2.5s2.6-1.1,4.1-1.5s2.9-0.5,4.4-0.5
		c5.7,0,10,1.5,12.9,4.5s4.3,7.8,4.3,14.3v33.6H2394.2z"/>
</g>
    <g class="st0">
	<path d="M3038.2,159.5c0,3-0.5,5.7-1.6,8.1s-2.6,4.4-4.6,6.1s-4.4,2.9-7.3,3.8s-6.1,1.3-9.7,1.3c-3.5,0-6.7-0.3-9.7-0.8
		s-5.5-1.4-7.6-2.4v-8.3c1.1,0.5,2.3,1,3.6,1.5s2.8,0.9,4.3,1.3s3,0.7,4.6,0.9s3.2,0.4,4.7,0.4c5,0,8.7-0.9,11.1-2.8
		s3.6-4.6,3.6-8.1c0-1.7-0.2-3.2-0.7-4.4s-1.3-2.4-2.4-3.4s-2.7-2.1-4.6-3s-4.3-2.1-7.2-3.2c-2.8-1.1-5.2-2.3-7.2-3.6
		s-3.7-2.8-5.1-4.4s-2.3-3.5-3-5.5s-1-4.4-1-7c0-2.8,0.5-5.2,1.5-7.4s2.4-4,4.2-5.5s4-2.6,6.5-3.4s5.3-1.2,8.3-1.2
		c3.7,0,7.1,0.4,10,1.1s5.6,1.6,7.9,2.7l-3.1,7.3c-2-0.9-4.3-1.7-6.9-2.4s-5.2-1-8-1c-3.8,0-6.8,0.9-8.9,2.6s-3.1,4.1-3.1,7.1
		c0,1.8,0.2,3.3,0.7,4.6s1.3,2.5,2.3,3.5s2.5,2,4.3,3s4,1.9,6.6,2.9c2.8,1.1,5.3,2.3,7.5,3.5s3.9,2.5,5.4,4s2.5,3.2,3.3,5.2
		S3038.2,156.9,3038.2,159.5z"/>
        <path d="M3058.6,151.3l6.3-8l13.7-16.9h9.9l-18.8,22.3l20.1,29.2h-9.8l-15.8-23.6l-5.1,3.8v19.8h-8.4v-72.9h8.4v33.5l-0.8,12.9
		H3058.6z"/>
        <path d="M3097.7,112.5c0-1.9,0.5-3.2,1.4-4.1s2.1-1.3,3.5-1.3c0.7,0,1.3,0.1,1.9,0.3s1.1,0.5,1.6,1s0.8,1,1.1,1.7s0.4,1.5,0.4,2.4
		c0,1.8-0.5,3.2-1.5,4.1s-2.2,1.3-3.5,1.3c-1.4,0-2.6-0.4-3.5-1.3S3097.7,114.3,3097.7,112.5z M3106.9,177.9h-8.5v-51.5h8.5V177.9z"
        />
        <path d="M3153.5,177.9h-34.6V172l25.1-39.2h-23.6v-6.4h32.3v6.8l-24.6,38.2h25.4V177.9z"/>
        <path d="M3195.9,177.9h-34.6V172l25.1-39.2h-23.6v-6.4h32.3v6.8l-24.6,38.2h25.4V177.9z"/>
        <path d="M3228.2,178.8c-3.4,0-6.6-0.6-9.4-1.7s-5.3-2.8-7.3-5.1s-3.6-5-4.8-8.3s-1.7-7-1.7-11.3c0-4.3,0.5-8,1.5-11.4
		s2.5-6.2,4.4-8.5s4.1-4.1,6.7-5.3s5.5-1.8,8.6-1.8c3.1,0,5.9,0.6,8.3,1.7s4.6,2.7,6.3,4.7s3,4.4,4,7.3s1.4,6,1.4,9.4v5.3h-32.4
		c0.2,6,1.4,10.5,3.8,13.3s5.9,4.3,10.7,4.3c1.6,0,3.1-0.1,4.4-0.2s2.7-0.4,3.9-0.7s2.5-0.7,3.7-1.1s2.4-1,3.6-1.5v7.6
		c-1.3,0.6-2.5,1.1-3.7,1.5s-2.4,0.8-3.7,1.1s-2.6,0.5-3.9,0.6S3229.8,178.8,3228.2,178.8z M3226.1,132.5c-3.6,0-6.4,1.2-8.5,3.7
		s-3.3,6-3.6,10.6h23.1c0-2.1-0.2-4.1-0.6-5.8s-1.1-3.3-2-4.5s-2-2.2-3.4-2.9S3228,132.5,3226.1,132.5z"/>
        <path d="M3291.4,177.9v-33.1c0-4.1-0.8-7.1-2.5-9.1s-4.2-3-7.7-3c-2.5,0-4.7,0.4-6.4,1.2s-3.1,2-4.1,3.6s-1.8,3.5-2.3,5.9
		s-0.7,5-0.7,8v26.7h-8.5v-51.5h6.9l1.2,6.9h0.5c0.8-1.3,1.7-2.5,2.8-3.5s2.3-1.8,3.5-2.5s2.6-1.1,4.1-1.5s2.9-0.5,4.4-0.5
		c5.7,0,10,1.5,12.9,4.5s4.3,7.8,4.3,14.3v33.6H3291.4z"/>
        <path d="M3336.1,178.8c-3.4,0-6.6-0.6-9.4-1.7s-5.3-2.8-7.3-5.1s-3.6-5-4.8-8.3s-1.7-7-1.7-11.3c0-4.3,0.5-8,1.5-11.4
		s2.5-6.2,4.4-8.5s4.1-4.1,6.7-5.3s5.5-1.8,8.6-1.8c3.1,0,5.9,0.6,8.3,1.7s4.6,2.7,6.3,4.7s3,4.4,4,7.3s1.4,6,1.4,9.4v5.3h-32.4
		c0.2,6,1.4,10.5,3.8,13.3s5.9,4.3,10.7,4.3c1.6,0,3.1-0.1,4.4-0.2s2.7-0.4,3.9-0.7s2.5-0.7,3.7-1.1s2.4-1,3.6-1.5v7.6
		c-1.3,0.6-2.5,1.1-3.7,1.5s-2.4,0.8-3.7,1.1s-2.6,0.5-3.9,0.6S3337.7,178.8,3336.1,178.8z M3334,132.5c-3.6,0-6.4,1.2-8.5,3.7
		s-3.3,6-3.6,10.6h23.1c0-2.1-0.2-4.1-0.6-5.8s-1.1-3.3-2-4.5s-2-2.2-3.4-2.9S3335.9,132.5,3334,132.5z"/>
        <path d="M3398.9,171h-0.4c-0.7,1.1-1.5,2.1-2.4,3s-2,1.8-3.2,2.5s-2.6,1.3-4.1,1.7s-3.2,0.6-5.1,0.6c-2.9,0-5.6-0.6-8-1.7
		s-4.5-2.8-6.2-5s-3-5-4-8.3s-1.4-7.2-1.4-11.5c0-4.4,0.5-8.3,1.4-11.6s2.3-6.1,4-8.4s3.8-3.9,6.2-5.1s5.1-1.7,8-1.7
		c1.8,0,3.5,0.2,5,0.6s2.9,1,4.1,1.6s2.3,1.5,3.2,2.4s1.8,1.9,2.4,2.9h0.6c-0.1-1.1-0.2-2.1-0.3-3c-0.1-0.8-0.1-1.6-0.2-2.5
		s-0.1-1.5-0.1-2v-20.4h8.5v72.9h-6.9L3398.9,171z M3385.5,171.7c2.4,0,4.4-0.4,6-1.1s3-1.8,4-3.3s1.8-3.3,2.3-5.5s0.8-4.8,0.8-7.7
		v-1.9c0-3.2-0.2-6-0.6-8.4s-1.1-4.5-2.2-6.2s-2.4-2.9-4.1-3.8s-3.8-1.3-6.3-1.3c-4.2,0-7.3,1.7-9.3,5.1s-3,8.3-3,14.7
		c0,6.5,1,11.4,3,14.6S3381.2,171.7,3385.5,171.7z"/>
        <path d="M3422.7,112.5c0-1.9,0.5-3.2,1.4-4.1s2.1-1.3,3.5-1.3c0.7,0,1.3,0.1,1.9,0.3s1.1,0.5,1.6,1s0.8,1,1.1,1.7s0.4,1.5,0.4,2.4
		c0,1.8-0.5,3.2-1.5,4.1s-2.2,1.3-3.5,1.3c-1.4,0-2.6-0.4-3.5-1.3S3422.7,114.3,3422.7,112.5z M3431.9,177.9h-8.5v-51.5h8.5V177.9z"
        />
        <path d="M3463.8,171.8c0.6,0,1.2,0,1.9-0.1s1.4-0.1,2-0.2s1.3-0.2,1.8-0.3s1-0.2,1.2-0.3v6.5c-0.4,0.2-0.9,0.4-1.5,0.6
		s-1.3,0.4-2.1,0.5s-1.5,0.3-2.3,0.3s-1.6,0.1-2.4,0.1c-1.9,0-3.7-0.3-5.4-0.8s-3.1-1.4-4.3-2.6s-2.1-2.9-2.8-4.9s-1-4.7-1-7.9
		v-29.9h-7.3V129l7.3-3.7l3.7-10.8h4.9v11.8h12.9v6.4h-12.9v29.9c0,3,0.5,5.3,1.5,6.8S3461.5,171.8,3463.8,171.8z"/>
        <path d="M3480.1,112.5c0-1.9,0.5-3.2,1.4-4.1s2.1-1.3,3.5-1.3c0.7,0,1.3,0.1,1.9,0.3s1.1,0.5,1.6,1s0.8,1,1.1,1.7s0.4,1.5,0.4,2.4
		c0,1.8-0.5,3.2-1.5,4.1s-2.2,1.3-3.5,1.3c-1.4,0-2.6-0.4-3.5-1.3S3480.1,114.3,3480.1,112.5z M3489.3,177.9h-8.5v-51.5h8.5V177.9z"
        />
        <path d="M3547.6,152c0,4.3-0.5,8.1-1.6,11.4s-2.5,6.1-4.5,8.4s-4.3,4-7.1,5.2s-5.9,1.8-9.4,1.8c-3.2,0-6.2-0.6-8.9-1.8
		s-5.1-2.9-7.1-5.2s-3.5-5.1-4.6-8.4s-1.7-7.1-1.7-11.4c0-4.3,0.5-8,1.6-11.3s2.5-6.1,4.5-8.3s4.3-4,7.1-5.2s5.9-1.8,9.4-1.8
		c3.2,0,6.2,0.6,8.9,1.8s5.1,2.9,7.1,5.2s3.5,5,4.6,8.3S3547.6,147.8,3547.6,152z M3511.6,152c0,6.5,1.1,11.4,3.2,14.7
		s5.6,4.9,10.4,4.9s8.3-1.6,10.4-4.9s3.2-8.2,3.2-14.7s-1.1-11.4-3.2-14.6s-5.6-4.9-10.4-4.9s-8.3,1.6-10.4,4.9
		S3511.6,145.5,3511.6,152z"/>
        <path d="M3593.2,177.9v-33.1c0-4.1-0.8-7.1-2.5-9.1s-4.2-3-7.7-3c-2.5,0-4.7,0.4-6.4,1.2s-3.1,2-4.1,3.6s-1.8,3.5-2.3,5.9
		s-0.7,5-0.7,8v26.7h-8.5v-51.5h6.9l1.2,6.9h0.5c0.8-1.3,1.7-2.5,2.8-3.5s2.3-1.8,3.5-2.5s2.6-1.1,4.1-1.5s2.9-0.5,4.4-0.5
		c5.7,0,10,1.5,12.9,4.5s4.3,7.8,4.3,14.3v33.6H3593.2z"/>
        <path d="M3637.9,178.8c-3.4,0-6.6-0.6-9.4-1.7s-5.3-2.8-7.3-5.1s-3.6-5-4.8-8.3s-1.7-7-1.7-11.3c0-4.3,0.5-8,1.5-11.4
		s2.5-6.2,4.4-8.5s4.1-4.1,6.7-5.3s5.5-1.8,8.6-1.8c3.1,0,5.9,0.6,8.3,1.7s4.6,2.7,6.3,4.7s3,4.4,4,7.3s1.4,6,1.4,9.4v5.3h-32.4
		c0.2,6,1.4,10.5,3.8,13.3s5.9,4.3,10.7,4.3c1.6,0,3.1-0.1,4.4-0.2s2.7-0.4,3.9-0.7s2.5-0.7,3.7-1.1s2.4-1,3.6-1.5v7.6
		c-1.3,0.6-2.5,1.1-3.7,1.5s-2.4,0.8-3.7,1.1s-2.6,0.5-3.9,0.6S3639.5,178.8,3637.9,178.8z M3635.8,132.5c-3.6,0-6.4,1.2-8.5,3.7
		s-3.3,6-3.6,10.6h23.1c0-2.1-0.2-4.1-0.6-5.8s-1.1-3.3-2-4.5s-2-2.2-3.4-2.9S3637.7,132.5,3635.8,132.5z"/>
        <path d="M3701.1,177.9v-33.1c0-4.1-0.8-7.1-2.5-9.1s-4.2-3-7.7-3c-2.5,0-4.7,0.4-6.4,1.2s-3.1,2-4.1,3.6s-1.8,3.5-2.3,5.9
		s-0.7,5-0.7,8v26.7h-8.5v-51.5h6.9l1.2,6.9h0.5c0.8-1.3,1.7-2.5,2.8-3.5s2.3-1.8,3.5-2.5s2.6-1.1,4.1-1.5s2.9-0.5,4.4-0.5
		c5.7,0,10,1.5,12.9,4.5s4.3,7.8,4.3,14.3v33.6H3701.1z"/>
</g>
    <g class="st0">
	<path d="M703.1,545.4c0,2.8-0.4,5.6-1.3,8.2c-0.9,2.6-2.3,4.9-4.2,7s-4.6,3.6-7.8,4.8s-7.2,1.8-12,1.8h-7v26.7h-8.7v-68.5h17
		c4.2,0,7.8,0.4,10.8,1.3c3,0.9,5.5,2.2,7.5,3.9s3.4,3.8,4.4,6.3S703.1,542.2,703.1,545.4z M670.8,559.8h6c2.9,0,5.4-0.3,7.6-0.8
		c2.2-0.5,4-1.3,5.4-2.4c1.4-1.1,2.5-2.5,3.2-4.3c0.7-1.8,1.1-3.9,1.1-6.4c0-4.4-1.3-7.7-3.8-9.9c-2.6-2.1-6.6-3.2-12-3.2h-7.5
		V559.8z"/>
        <path d="M738.5,541.5c0.9,0,1.9,0,3,0.1s2.1,0.2,2.9,0.4l-1.1,7.9c-0.9-0.2-1.8-0.3-2.7-0.4c-0.9-0.1-1.8-0.2-2.6-0.2
		c-2,0-3.8,0.4-5.4,1.2c-1.6,0.8-3,1.9-4.2,3.4c-1.2,1.5-2.1,3.3-2.7,5.3c-0.6,2.1-1,4.4-1,6.9v27.8h-8.5v-51.5h6.9l1,9.4h0.4
		c0.8-1.3,1.6-2.6,2.5-3.9s1.9-2.4,3-3.3c1.1-1,2.4-1.7,3.7-2.3C735.2,541.8,736.7,541.5,738.5,541.5z"/>
        <path d="M753.9,528.5c0-1.9,0.5-3.2,1.4-4.1c1-0.8,2.1-1.3,3.5-1.3c0.7,0,1.3,0.1,1.9,0.3s1.1,0.5,1.6,1c0.5,0.4,0.8,1,1.1,1.7
		c0.3,0.7,0.4,1.5,0.4,2.4c0,1.8-0.5,3.2-1.5,4.1s-2.2,1.3-3.5,1.3c-1.4,0-2.6-0.4-3.5-1.3C754.3,531.7,753.9,530.3,753.9,528.5z
		 M763,593.9h-8.5v-51.5h8.5V593.9z"/>
        <path d="M811.5,593.9v-33.1c0-4.1-0.8-7.1-2.5-9.1s-4.2-3-7.7-3c-2.5,0-4.7,0.4-6.4,1.2c-1.7,0.8-3.1,2-4.1,3.6
		c-1,1.6-1.8,3.5-2.3,5.9c-0.5,2.3-0.7,5-0.7,8v26.7h-8.5v-51.5h6.9l1.2,6.9h0.5c0.8-1.3,1.7-2.5,2.8-3.5s2.3-1.8,3.5-2.5
		c1.3-0.7,2.6-1.1,4.1-1.5c1.4-0.3,2.9-0.5,4.4-0.5c5.7,0,10,1.5,12.9,4.5c2.9,3,4.3,7.8,4.3,14.3v33.6H811.5z"/>
        <path d="M851.4,587.8c0.6,0,1.2,0,1.9-0.1s1.4-0.1,2-0.2s1.3-0.2,1.8-0.3c0.5-0.1,1-0.2,1.2-0.3v6.5c-0.4,0.2-0.9,0.4-1.5,0.6
		c-0.6,0.2-1.3,0.4-2.1,0.5s-1.5,0.3-2.3,0.3c-0.8,0.1-1.6,0.1-2.4,0.1c-1.9,0-3.7-0.3-5.4-0.8c-1.7-0.5-3.1-1.4-4.3-2.6
		c-1.2-1.2-2.1-2.9-2.8-4.9c-0.7-2.1-1-4.7-1-7.9v-29.9h-7.3V545l7.3-3.7l3.7-10.8h4.9v11.8h12.9v6.4h-12.9v29.9
		c0,3,0.5,5.3,1.5,6.8S849.2,587.8,851.4,587.8z"/>
        <path d="M864.1,572.1v-7.9h23.3v7.9H864.1z"/>
        <path d="M936.1,593.9h-35.6v-68.5h35.6v7.7h-26.9v21.2h25.1v7.6h-25.1v24.4h26.9V593.9z"/>
        <path d="M981.8,587h-0.4c-0.7,1.1-1.5,2.1-2.4,3c-0.9,1-2,1.8-3.2,2.5c-1.2,0.7-2.6,1.3-4.1,1.7s-3.2,0.6-5.1,0.6
		c-2.9,0-5.6-0.6-8-1.7c-2.4-1.1-4.5-2.8-6.2-5c-1.7-2.2-3-5-4-8.3s-1.4-7.2-1.4-11.5c0-4.4,0.5-8.3,1.4-11.6c0.9-3.3,2.3-6.1,4-8.4
		c1.7-2.3,3.8-3.9,6.2-5.1c2.4-1.1,5.1-1.7,8-1.7c1.8,0,3.5,0.2,5,0.6s2.9,1,4.1,1.6c1.2,0.7,2.3,1.5,3.2,2.4s1.8,1.9,2.4,2.9h0.6
		c-0.1-1.1-0.2-2.1-0.3-3c-0.1-0.8-0.1-1.6-0.2-2.5c-0.1-0.9-0.1-1.5-0.1-2v-20.4h8.5v72.9H983L981.8,587z M968.3,587.7
		c2.4,0,4.4-0.4,6-1.1s3-1.8,4-3.3c1-1.5,1.8-3.3,2.3-5.5c0.5-2.2,0.8-4.8,0.8-7.7v-1.9c0-3.2-0.2-6-0.6-8.4s-1.1-4.5-2.2-6.2
		c-1-1.7-2.4-2.9-4.1-3.8s-3.8-1.3-6.3-1.3c-4.2,0-7.3,1.7-9.3,5.1c-2,3.4-3,8.3-3,14.7c0,6.5,1,11.4,3,14.6
		C960.9,586.1,964,587.7,968.3,587.7z"/>
        <path d="M1005.6,528.5c0-1.9,0.5-3.2,1.4-4.1c1-0.8,2.1-1.3,3.5-1.3c0.7,0,1.3,0.1,1.9,0.3s1.1,0.5,1.6,1c0.5,0.4,0.8,1,1.1,1.7
		c0.3,0.7,0.4,1.5,0.4,2.4c0,1.8-0.5,3.2-1.5,4.1s-2.2,1.3-3.5,1.3c-1.4,0-2.6-0.4-3.5-1.3C1006,531.7,1005.6,530.3,1005.6,528.5z
		 M1014.8,593.9h-8.5v-51.5h8.5V593.9z"/>
        <path d="M1046.6,587.8c0.6,0,1.2,0,1.9-0.1s1.4-0.1,2-0.2s1.3-0.2,1.8-0.3c0.5-0.1,1-0.2,1.2-0.3v6.5c-0.4,0.2-0.9,0.4-1.5,0.6
		c-0.6,0.2-1.3,0.4-2.1,0.5s-1.5,0.3-2.3,0.3c-0.8,0.1-1.6,0.1-2.4,0.1c-1.9,0-3.7-0.3-5.4-0.8c-1.7-0.5-3.1-1.4-4.3-2.6
		c-1.2-1.2-2.1-2.9-2.8-4.9c-0.7-2.1-1-4.7-1-7.9v-29.9h-7.3V545l7.3-3.7l3.7-10.8h4.9v11.8h12.9v6.4h-12.9v29.9
		c0,3,0.5,5.3,1.5,6.8S1044.4,587.8,1046.6,587.8z"/>
        <path d="M1062.9,528.5c0-1.9,0.5-3.2,1.4-4.1c1-0.8,2.1-1.3,3.5-1.3c0.7,0,1.3,0.1,1.9,0.3s1.1,0.5,1.6,1c0.5,0.4,0.8,1,1.1,1.7
		c0.3,0.7,0.4,1.5,0.4,2.4c0,1.8-0.5,3.2-1.5,4.1s-2.2,1.3-3.5,1.3c-1.4,0-2.6-0.4-3.5-1.3C1063.4,531.7,1062.9,530.3,1062.9,528.5z
		 M1072.1,593.9h-8.5v-51.5h8.5V593.9z"/>
        <path d="M1130.4,568c0,4.3-0.5,8.1-1.6,11.4c-1,3.3-2.5,6.1-4.5,8.4c-2,2.3-4.3,4-7.1,5.2c-2.8,1.2-5.9,1.8-9.4,1.8
		c-3.2,0-6.2-0.6-8.9-1.8s-5.1-2.9-7.1-5.2c-2-2.3-3.5-5.1-4.6-8.4c-1.1-3.3-1.7-7.1-1.7-11.4c0-4.3,0.5-8,1.6-11.3
		c1-3.3,2.5-6.1,4.5-8.3c1.9-2.3,4.3-4,7.1-5.2c2.8-1.2,5.9-1.8,9.4-1.8c3.2,0,6.2,0.6,8.9,1.8s5.1,2.9,7.1,5.2c2,2.3,3.5,5,4.6,8.3
		C1129.8,560,1130.4,563.8,1130.4,568z M1094.4,568c0,6.5,1.1,11.4,3.2,14.7c2.1,3.3,5.6,4.9,10.4,4.9c4.8,0,8.3-1.6,10.4-4.9
		s3.2-8.2,3.2-14.7s-1.1-11.4-3.2-14.6c-2.1-3.2-5.6-4.9-10.4-4.9c-4.8,0-8.3,1.6-10.4,4.9C1095.5,556.6,1094.4,561.5,1094.4,568z"
        />
        <path d="M1176,593.9v-33.1c0-4.1-0.8-7.1-2.5-9.1s-4.2-3-7.7-3c-2.5,0-4.7,0.4-6.4,1.2c-1.7,0.8-3.1,2-4.1,3.6
		c-1,1.6-1.8,3.5-2.3,5.9c-0.5,2.3-0.7,5-0.7,8v26.7h-8.5v-51.5h6.9l1.2,6.9h0.5c0.8-1.3,1.7-2.5,2.8-3.5s2.3-1.8,3.5-2.5
		c1.3-0.7,2.6-1.1,4.1-1.5c1.4-0.3,2.9-0.5,4.4-0.5c5.7,0,10,1.5,12.9,4.5c2.9,3,4.3,7.8,4.3,14.3v33.6H1176z"/>
</g>
    <g class="st0">
	<path d="M3119.3,559.5c0,5.3-0.6,10.1-1.9,14.4s-3.1,8.1-5.6,11.2s-5.6,5.5-9.3,7.2s-8,2.5-12.8,2.5c-5.1,0-9.5-0.8-13.2-2.5
		s-6.8-4.1-9.3-7.2s-4.3-6.8-5.5-11.2s-1.8-9.2-1.8-14.5s0.6-10.1,1.8-14.5s3-8,5.5-11.1s5.6-5.4,9.3-7.1s8.2-2.5,13.3-2.5
		c4.8,0,9.1,0.8,12.8,2.5s6.8,4,9.3,7.1s4.4,6.8,5.6,11.1S3119.3,554.2,3119.3,559.5z M3069,559.5c0,4.3,0.4,8.1,1.2,11.6
		s2.1,6.3,3.7,8.7s3.8,4.2,6.4,5.5s5.6,1.9,9.2,1.9s6.6-0.6,9.2-1.9s4.7-3.1,6.4-5.5s2.9-5.3,3.7-8.7s1.2-7.3,1.2-11.6
		c0-4.3-0.4-8.2-1.2-11.6s-2-6.3-3.7-8.6s-3.8-4.2-6.3-5.4s-5.6-1.9-9.2-1.9s-6.6,0.6-9.2,1.9s-4.7,3.1-6.4,5.4s-2.9,5.2-3.8,8.6
		S3069,555.2,3069,559.5z"/>
        <path d="M3165.5,593.9v-33.1c0-4.1-0.8-7.1-2.5-9.1s-4.2-3-7.7-3c-2.5,0-4.7,0.4-6.4,1.2s-3.1,2-4.1,3.6c-1,1.6-1.8,3.5-2.3,5.9
		s-0.7,5-0.7,8v26.7h-8.5v-51.5h6.9l1.2,6.9h0.5c0.8-1.3,1.7-2.5,2.8-3.5s2.3-1.8,3.5-2.5s2.6-1.1,4.1-1.5s2.9-0.5,4.4-0.5
		c5.7,0,10,1.5,12.9,4.5s4.3,7.8,4.3,14.3v33.6H3165.5z"/>
        <path d="M3198.4,593.9h-8.5v-72.9h8.5V593.9z"/>
        <path d="M3214.1,528.5c0-1.9,0.5-3.2,1.4-4.1s2.1-1.3,3.5-1.3c0.7,0,1.3,0.1,1.9,0.3s1.1,0.5,1.6,1s0.8,1,1.1,1.7s0.4,1.5,0.4,2.4
		c0,1.8-0.5,3.2-1.5,4.1s-2.2,1.3-3.5,1.3c-1.4,0-2.6-0.4-3.5-1.3S3214.1,530.3,3214.1,528.5z M3223.3,593.9h-8.5v-51.5h8.5V593.9z"
        />
        <path d="M3271.7,593.9v-33.1c0-4.1-0.8-7.1-2.5-9.1s-4.2-3-7.7-3c-2.5,0-4.7,0.4-6.4,1.2s-3.1,2-4.1,3.6c-1,1.6-1.8,3.5-2.3,5.9
		s-0.7,5-0.7,8v26.7h-8.5v-51.5h6.9l1.2,6.9h0.5c0.8-1.3,1.7-2.5,2.8-3.5s2.3-1.8,3.5-2.5s2.6-1.1,4.1-1.5s2.9-0.5,4.4-0.5
		c5.7,0,10,1.5,12.9,4.5s4.3,7.8,4.3,14.3v33.6H3271.7z"/>
        <path d="M3316.5,594.8c-3.4,0-6.6-0.6-9.4-1.7s-5.3-2.8-7.3-5.1s-3.6-5-4.8-8.3s-1.7-7-1.7-11.3c0-4.3,0.5-8,1.5-11.4
		c1-3.3,2.5-6.2,4.4-8.5s4.1-4.1,6.7-5.3s5.5-1.8,8.6-1.8c3.1,0,5.9,0.6,8.3,1.7s4.6,2.7,6.3,4.7s3,4.4,4,7.3c0.9,2.8,1.4,6,1.4,9.4
		v5.3h-32.4c0.2,6,1.4,10.5,3.8,13.3s5.9,4.3,10.7,4.3c1.6,0,3.1-0.1,4.4-0.2s2.7-0.4,3.9-0.7s2.5-0.7,3.7-1.1s2.4-1,3.6-1.5v7.6
		c-1.3,0.6-2.5,1.1-3.7,1.5s-2.4,0.8-3.7,1.1s-2.6,0.5-3.9,0.6S3318,594.8,3316.5,594.8z M3314.3,548.5c-3.6,0-6.4,1.2-8.5,3.7
		c-2.1,2.4-3.3,6-3.6,10.6h23.1c0-2.1-0.2-4.1-0.6-5.8s-1.1-3.3-2-4.5s-2-2.2-3.4-2.9S3316.3,548.5,3314.3,548.5z"/>
        <path d="M3343.2,572.1v-7.9h23.3v7.9H3343.2z"/>
        <path d="M3415.1,593.9h-35.6v-68.5h35.6v7.7h-26.9v21.2h25.1v7.6h-25.1v24.4h26.9V593.9z"/>
        <path d="M3460.8,587h-0.4c-0.7,1.1-1.5,2.1-2.4,3s-2,1.8-3.2,2.5s-2.6,1.3-4.1,1.7s-3.2,0.6-5.1,0.6c-2.9,0-5.6-0.6-8-1.7
		s-4.5-2.8-6.2-5s-3-5-4-8.3s-1.4-7.2-1.4-11.5c0-4.4,0.5-8.3,1.4-11.6c0.9-3.3,2.3-6.1,4-8.4s3.8-3.9,6.2-5.1s5.1-1.7,8-1.7
		c1.8,0,3.5,0.2,5,0.6s2.9,1,4.1,1.6s2.3,1.5,3.2,2.4s1.8,1.9,2.4,2.9h0.6c-0.1-1.1-0.2-2.1-0.3-3c-0.1-0.8-0.1-1.6-0.2-2.5
		s-0.1-1.5-0.1-2v-20.4h8.5v72.9h-6.9L3460.8,587z M3447.4,587.7c2.4,0,4.4-0.4,6-1.1s3-1.8,4-3.3s1.8-3.3,2.3-5.5s0.8-4.8,0.8-7.7
		v-1.9c0-3.2-0.2-6-0.6-8.4s-1.1-4.5-2.2-6.2c-1-1.7-2.4-2.9-4.1-3.8s-3.8-1.3-6.3-1.3c-4.2,0-7.3,1.7-9.3,5.1c-2,3.4-3,8.3-3,14.7
		c0,6.5,1,11.4,3,14.6S3443.1,587.7,3447.4,587.7z"/>
        <path d="M3484.6,528.5c0-1.9,0.5-3.2,1.4-4.1s2.1-1.3,3.5-1.3c0.7,0,1.3,0.1,1.9,0.3s1.1,0.5,1.6,1s0.8,1,1.1,1.7s0.4,1.5,0.4,2.4
		c0,1.8-0.5,3.2-1.5,4.1s-2.2,1.3-3.5,1.3c-1.4,0-2.6-0.4-3.5-1.3S3484.6,530.3,3484.6,528.5z M3493.8,593.9h-8.5v-51.5h8.5V593.9z"
        />
        <path d="M3525.7,587.8c0.6,0,1.2,0,1.9-0.1s1.4-0.1,2-0.2s1.3-0.2,1.8-0.3s1-0.2,1.2-0.3v6.5c-0.4,0.2-0.9,0.4-1.5,0.6
		s-1.3,0.4-2.1,0.5s-1.5,0.3-2.3,0.3s-1.6,0.1-2.4,0.1c-1.9,0-3.7-0.3-5.4-0.8s-3.1-1.4-4.3-2.6s-2.1-2.9-2.8-4.9s-1-4.7-1-7.9
		v-29.9h-7.3V545l7.3-3.7l3.7-10.8h4.9v11.8h12.9v6.4h-12.9v29.9c0,3,0.5,5.3,1.5,6.8S3523.5,587.8,3525.7,587.8z"/>
        <path d="M3542,528.5c0-1.9,0.5-3.2,1.4-4.1s2.1-1.3,3.5-1.3c0.7,0,1.3,0.1,1.9,0.3s1.1,0.5,1.6,1s0.8,1,1.1,1.7s0.4,1.5,0.4,2.4
		c0,1.8-0.5,3.2-1.5,4.1s-2.2,1.3-3.5,1.3c-1.4,0-2.6-0.4-3.5-1.3S3542,530.3,3542,528.5z M3551.2,593.9h-8.5v-51.5h8.5V593.9z"/>
        <path d="M3609.5,568c0,4.3-0.5,8.1-1.6,11.4s-2.5,6.1-4.5,8.4s-4.3,4-7.1,5.2s-5.9,1.8-9.4,1.8c-3.2,0-6.2-0.6-8.9-1.8
		s-5.1-2.9-7.1-5.2s-3.5-5.1-4.6-8.4s-1.7-7.1-1.7-11.4c0-4.3,0.5-8,1.6-11.3c1-3.3,2.5-6.1,4.5-8.3s4.3-4,7.1-5.2s5.9-1.8,9.4-1.8
		c3.2,0,6.2,0.6,8.9,1.8s5.1,2.9,7.1,5.2s3.5,5,4.6,8.3C3608.9,560,3609.5,563.8,3609.5,568z M3573.5,568c0,6.5,1.1,11.4,3.2,14.7
		s5.6,4.9,10.4,4.9s8.3-1.6,10.4-4.9s3.2-8.2,3.2-14.7s-1.1-11.4-3.2-14.6c-2.1-3.2-5.6-4.9-10.4-4.9s-8.3,1.6-10.4,4.9
		C3574.5,556.6,3573.5,561.5,3573.5,568z"/>
        <path d="M3655.1,593.9v-33.1c0-4.1-0.8-7.1-2.5-9.1s-4.2-3-7.7-3c-2.5,0-4.7,0.4-6.4,1.2s-3.1,2-4.1,3.6c-1,1.6-1.8,3.5-2.3,5.9
		s-0.7,5-0.7,8v26.7h-8.5v-51.5h6.9l1.2,6.9h0.5c0.8-1.3,1.7-2.5,2.8-3.5s2.3-1.8,3.5-2.5s2.6-1.1,4.1-1.5s2.9-0.5,4.4-0.5
		c5.7,0,10,1.5,12.9,4.5s4.3,7.8,4.3,14.3v33.6H3655.1z"/>
</g>
    <g class="st0">
	<path d="M698.9,977.9h-35.6v-68.5h35.6v7.7H672v21.2h25.1v7.6H672v24.4h26.9V977.9z"/>
        <path d="M712.1,912.5c0-1.9,0.5-3.2,1.4-4.1c1-0.8,2.1-1.3,3.5-1.3c0.7,0,1.3,0.1,1.9,0.3s1.1,0.5,1.6,1c0.5,0.4,0.8,1,1.1,1.7
		c0.3,0.7,0.4,1.5,0.4,2.4c0,1.8-0.5,3.2-1.5,4.1s-2.2,1.3-3.5,1.3c-1.4,0-2.6-0.4-3.5-1.3C712.6,915.7,712.1,914.3,712.1,912.5z
		 M721.3,977.9h-8.5v-51.5h8.5V977.9z"/>
        <path d="M769.8,977.9v-33.1c0-4.1-0.8-7.1-2.5-9.1s-4.2-3-7.7-3c-2.5,0-4.7,0.4-6.4,1.2c-1.7,0.8-3.1,2-4.1,3.6
		c-1,1.6-1.8,3.5-2.3,5.9c-0.5,2.3-0.7,5-0.7,8v26.7h-8.5v-51.5h6.9l1.2,6.9h0.5c0.8-1.3,1.7-2.5,2.8-3.5s2.3-1.8,3.5-2.5
		c1.3-0.7,2.6-1.1,4.1-1.5c1.4-0.3,2.9-0.5,4.4-0.5c5.7,0,10,1.5,12.9,4.5c2.9,3,4.3,7.8,4.3,14.3v33.6H769.8z"/>
        <path d="M802.7,977.9h-8.5v-72.9h8.5V977.9z"/>
        <path d="M839.3,978.8c-3.4,0-6.6-0.6-9.4-1.7c-2.8-1.2-5.3-2.8-7.3-5.1c-2-2.2-3.6-5-4.8-8.3s-1.7-7-1.7-11.3c0-4.3,0.5-8,1.5-11.4
		s2.5-6.2,4.4-8.5s4.1-4.1,6.7-5.3c2.6-1.2,5.5-1.8,8.6-1.8c3.1,0,5.9,0.6,8.3,1.7c2.5,1.1,4.6,2.7,6.3,4.7c1.7,2,3,4.4,4,7.3
		c0.9,2.8,1.4,6,1.4,9.4v5.3H825c0.2,6,1.4,10.5,3.8,13.3s5.9,4.3,10.7,4.3c1.6,0,3.1-0.1,4.4-0.2s2.7-0.4,3.9-0.7s2.5-0.7,3.7-1.1
		c1.2-0.5,2.4-1,3.6-1.5v7.6c-1.3,0.6-2.5,1.1-3.7,1.5c-1.2,0.4-2.4,0.8-3.7,1.1s-2.6,0.5-3.9,0.6S840.9,978.8,839.3,978.8z
		 M837.2,932.5c-3.6,0-6.4,1.2-8.5,3.7c-2.1,2.4-3.3,6-3.6,10.6h23.1c0-2.1-0.2-4.1-0.6-5.8s-1.1-3.3-2-4.5s-2-2.2-3.4-2.9
		C840.8,932.9,839.2,932.5,837.2,932.5z"/>
        <path d="M869.7,912.5c0-1.9,0.5-3.2,1.4-4.1c1-0.8,2.1-1.3,3.5-1.3c0.7,0,1.3,0.1,1.9,0.3s1.1,0.5,1.6,1c0.5,0.4,0.8,1,1.1,1.7
		c0.3,0.7,0.4,1.5,0.4,2.4c0,1.8-0.5,3.2-1.5,4.1s-2.2,1.3-3.5,1.3c-1.4,0-2.6-0.4-3.5-1.3C870.2,915.7,869.7,914.3,869.7,912.5z
		 M878.9,977.9h-8.5v-51.5h8.5V977.9z"/>
        <path d="M910.8,971.8c0.6,0,1.2,0,1.9-0.1s1.4-0.1,2-0.2s1.3-0.2,1.8-0.3c0.5-0.1,1-0.2,1.2-0.3v6.5c-0.4,0.2-0.9,0.4-1.5,0.6
		c-0.6,0.2-1.3,0.4-2.1,0.5s-1.5,0.3-2.3,0.3c-0.8,0.1-1.6,0.1-2.4,0.1c-1.9,0-3.7-0.3-5.4-0.8c-1.7-0.5-3.1-1.4-4.3-2.6
		c-1.2-1.2-2.1-2.9-2.8-4.9c-0.7-2.1-1-4.7-1-7.9v-29.9h-7.3V929l7.3-3.7l3.7-10.8h4.9v11.8h12.9v6.4h-12.9v29.9
		c0,3,0.5,5.3,1.5,6.8S908.5,971.8,910.8,971.8z"/>
        <path d="M961.1,977.9l-1.3-6.9h-0.5c-0.8,1.3-1.7,2.5-2.8,3.5s-2.3,1.8-3.5,2.4c-1.3,0.6-2.6,1.1-4.1,1.4c-1.4,0.3-2.9,0.5-4.4,0.5
		c-2.8,0-5.3-0.4-7.5-1.1s-4-1.8-5.4-3.4c-1.4-1.5-2.5-3.5-3.3-5.9c-0.7-2.4-1.1-5.2-1.1-8.5v-33.6h8.5v33.1c0,4.1,0.8,7.1,2.5,9.1
		c1.7,2,4.2,3,7.7,3c2.5,0,4.7-0.4,6.4-1.2c1.7-0.8,3.1-2,4.1-3.6c1-1.6,1.8-3.5,2.3-5.8c0.5-2.3,0.7-5,0.7-8v-26.7h8.5v51.5H961.1z
		"/>
        <path d="M1016.4,977.9v-33.1c0-4.1-0.8-7.1-2.5-9.1s-4.2-3-7.7-3c-2.5,0-4.7,0.4-6.4,1.2c-1.7,0.8-3.1,2-4.1,3.6
		c-1,1.6-1.8,3.5-2.3,5.9c-0.5,2.3-0.7,5-0.7,8v26.7h-8.5v-51.5h6.9l1.2,6.9h0.5c0.8-1.3,1.7-2.5,2.8-3.5s2.3-1.8,3.5-2.5
		c1.3-0.7,2.6-1.1,4.1-1.5c1.4-0.3,2.9-0.5,4.4-0.5c5.7,0,10,1.5,12.9,4.5c2.9,3,4.3,7.8,4.3,14.3v33.6H1016.4z"/>
        <path d="M1080.5,926.4v5.3l-9.2,1.3c0.9,1.1,1.6,2.5,2.2,4.2c0.6,1.7,0.9,3.6,0.9,5.8c0,2.4-0.4,4.6-1.1,6.6
		c-0.7,2-1.8,3.8-3.3,5.2c-1.5,1.5-3.3,2.6-5.5,3.4c-2.2,0.8-4.7,1.2-7.6,1.2c-0.7,0-1.4,0-2.1,0c-0.7,0-1.3-0.1-1.7-0.2
		c-0.5,0.3-1.1,0.7-1.6,1.1s-1,0.8-1.4,1.3s-0.8,1.1-1,1.7c-0.3,0.6-0.4,1.3-0.4,2.1c0,0.8,0.2,1.5,0.6,2s0.9,0.9,1.5,1.2
		c0.6,0.3,1.4,0.5,2.3,0.6c0.9,0.1,1.8,0.1,2.8,0.1h8.3c2.9,0,5.4,0.4,7.4,1.1c2,0.7,3.6,1.7,4.9,3s2.2,2.7,2.7,4.4s0.8,3.5,0.8,5.4
		c0,2.8-0.5,5.2-1.5,7.4c-1,2.2-2.6,4-4.7,5.6c-2.1,1.5-4.7,2.7-7.9,3.5c-3.2,0.8-7,1.2-11.3,1.2c-3.3,0-6.3-0.3-8.8-1
		c-2.5-0.7-4.6-1.6-6.2-2.9c-1.7-1.3-2.9-2.8-3.7-4.5c-0.8-1.8-1.2-3.8-1.2-6c0-1.9,0.3-3.5,0.9-4.9s1.4-2.6,2.5-3.7
		s2.2-1.9,3.6-2.5s2.8-1.2,4.2-1.5c-1.3-0.6-2.4-1.5-3.2-2.8s-1.3-2.8-1.3-4.4c0-1.9,0.5-3.6,1.5-4.9c1-1.4,2.6-2.7,4.7-4.1
		c-1.3-0.6-2.6-1.3-3.7-2.3c-1.1-1-2-2.1-2.8-3.4c-0.8-1.3-1.4-2.6-1.8-4.1s-0.6-3-0.6-4.6c0-2.8,0.4-5.3,1.2-7.5
		c0.8-2.2,1.9-4,3.5-5.6c1.5-1.5,3.4-2.7,5.7-3.5c2.3-0.8,4.9-1.2,8-1.2c1.2,0,2.4,0.1,3.6,0.3c1.2,0.2,2.3,0.4,3.1,0.7H1080.5z
		 M1042.5,986.3c0,1.2,0.2,2.2,0.6,3.2c0.4,1,1.1,1.9,2,2.6c0.9,0.7,2.1,1.3,3.7,1.7c1.5,0.4,3.4,0.6,5.6,0.6
		c5.8,0,10.2-0.9,13.1-2.7c2.9-1.8,4.3-4.4,4.3-7.8c0-1.4-0.2-2.6-0.6-3.5s-1-1.6-1.9-2.1c-0.9-0.5-2-0.9-3.4-1.1s-3.1-0.3-5.2-0.3
		h-8.3c-1.1,0-2.2,0.1-3.4,0.4c-1.2,0.3-2.3,0.7-3.3,1.4s-1.8,1.6-2.4,2.8C1042.8,982.8,1042.5,984.4,1042.5,986.3z M1046.8,942.9
		c0,3.6,0.8,6.3,2.5,8s4.1,2.6,7.2,2.6c3.1,0,5.5-0.9,7.1-2.6c1.6-1.7,2.4-4.5,2.4-8.2c0-3.8-0.8-6.7-2.5-8.5s-4-2.7-7.1-2.7
		c-3.1,0-5.5,0.9-7.1,2.8C1047.6,936.3,1046.8,939.1,1046.8,942.9z"/>
        <path d="M1110.9,978.8c-3.4,0-6.6-0.6-9.4-1.7c-2.8-1.2-5.3-2.8-7.3-5.1c-2-2.2-3.6-5-4.8-8.3s-1.7-7-1.7-11.3
		c0-4.3,0.5-8,1.5-11.4s2.5-6.2,4.4-8.5s4.1-4.1,6.7-5.3c2.6-1.2,5.5-1.8,8.6-1.8c3.1,0,5.9,0.6,8.3,1.7c2.5,1.1,4.6,2.7,6.3,4.7
		c1.7,2,3,4.4,4,7.3c0.9,2.8,1.4,6,1.4,9.4v5.3h-32.4c0.2,6,1.4,10.5,3.8,13.3s5.9,4.3,10.7,4.3c1.6,0,3.1-0.1,4.4-0.2
		s2.7-0.4,3.9-0.7s2.5-0.7,3.7-1.1c1.2-0.5,2.4-1,3.6-1.5v7.6c-1.3,0.6-2.5,1.1-3.7,1.5c-1.2,0.4-2.4,0.8-3.7,1.1s-2.6,0.5-3.9,0.6
		S1112.5,978.8,1110.9,978.8z M1108.8,932.5c-3.6,0-6.4,1.2-8.5,3.7c-2.1,2.4-3.3,6-3.6,10.6h23.1c0-2.1-0.2-4.1-0.6-5.8
		s-1.1-3.3-2-4.5s-2-2.2-3.4-2.9C1112.4,932.9,1110.7,932.5,1108.8,932.5z"/>
        <path d="M1174.1,977.9v-33.1c0-4.1-0.8-7.1-2.5-9.1s-4.2-3-7.7-3c-2.5,0-4.7,0.4-6.4,1.2c-1.7,0.8-3.1,2-4.1,3.6
		c-1,1.6-1.8,3.5-2.3,5.9c-0.5,2.3-0.7,5-0.7,8v26.7h-8.5v-51.5h6.9l1.2,6.9h0.5c0.8-1.3,1.7-2.5,2.8-3.5s2.3-1.8,3.5-2.5
		c1.3-0.7,2.6-1.1,4.1-1.5c1.4-0.3,2.9-0.5,4.4-0.5c5.7,0,10,1.5,12.9,4.5c2.9,3,4.3,7.8,4.3,14.3v33.6H1174.1z"/>
</g>
    <g class="st0">
	<path d="M3055.1,977.9h-9.9l-21.1-32.7l-6.5,5.3v27.4h-8.7v-68.5h8.7v34.3l5.7-7.9l21.2-26.4h9.8l-24.4,29.9L3055.1,977.9z"/>
        <path d="M3085.5,925.5c0.9,0,1.9,0,3,0.1s2.1,0.2,2.9,0.4l-1.1,7.9c-0.9-0.2-1.8-0.3-2.7-0.4s-1.8-0.2-2.6-0.2
		c-2,0-3.8,0.4-5.4,1.2s-3,1.9-4.2,3.4s-2.1,3.3-2.7,5.3s-1,4.4-1,6.9v27.8h-8.5v-51.5h6.9l1,9.4h0.4c0.8-1.3,1.6-2.6,2.5-3.9
		s1.9-2.4,3-3.3s2.4-1.7,3.7-2.3S3083.8,925.5,3085.5,925.5z"/>
        <path d="M3100.9,912.5c0-1.9,0.5-3.2,1.4-4.1s2.1-1.3,3.5-1.3c0.7,0,1.3,0.1,1.9,0.3s1.1,0.5,1.6,1s0.8,1,1.1,1.7s0.4,1.5,0.4,2.4
		c0,1.8-0.5,3.2-1.5,4.1s-2.2,1.3-3.5,1.3c-1.4,0-2.6-0.4-3.5-1.3S3100.9,914.3,3100.9,912.5z M3110.1,977.9h-8.5v-51.5h8.5V977.9z"
        />
        <path d="M3142,971.8c0.6,0,1.2,0,1.9-0.1s1.4-0.1,2-0.2s1.3-0.2,1.8-0.3s1-0.2,1.2-0.3v6.5c-0.4,0.2-0.9,0.4-1.5,0.6
		s-1.3,0.4-2.1,0.5s-1.5,0.3-2.3,0.3s-1.6,0.1-2.4,0.1c-1.9,0-3.7-0.3-5.4-0.8s-3.1-1.4-4.3-2.6s-2.1-2.9-2.8-4.9s-1-4.7-1-7.9
		v-29.9h-7.3V929l7.3-3.7l3.7-10.8h4.9v11.8h12.9v6.4h-12.9v29.9c0,3,0.5,5.3,1.5,6.8S3139.7,971.8,3142,971.8z"/>
        <path d="M3158.3,912.5c0-1.9,0.5-3.2,1.4-4.1s2.1-1.3,3.5-1.3c0.7,0,1.3,0.1,1.9,0.3s1.1,0.5,1.6,1s0.8,1,1.1,1.7s0.4,1.5,0.4,2.4
		c0,1.8-0.5,3.2-1.5,4.1s-2.2,1.3-3.5,1.3c-1.4,0-2.6-0.4-3.5-1.3S3158.3,914.3,3158.3,912.5z M3167.5,977.9h-8.5v-51.5h8.5V977.9z"
        />
        <path d="M3214.6,963.8c0,2.5-0.5,4.7-1.4,6.6s-2.2,3.4-3.9,4.7s-3.8,2.2-6.2,2.8s-5.1,0.9-8.1,0.9c-3.4,0-6.3-0.3-8.8-0.8
		s-4.6-1.4-6.4-2.4v-7.8c1,0.5,2,1,3.2,1.5s2.4,0.9,3.8,1.3s2.7,0.7,4.1,0.9s2.8,0.4,4.1,0.4c2,0,3.8-0.2,5.2-0.5s2.6-0.8,3.5-1.5
		s1.5-1.4,1.9-2.3s0.6-1.9,0.6-3.1c0-1-0.2-1.8-0.5-2.6s-0.9-1.6-1.7-2.3s-2-1.5-3.4-2.3s-3.3-1.7-5.5-2.6s-4.3-1.9-6.1-2.9
		s-3.3-2-4.6-3.1s-2.2-2.5-2.9-4s-1-3.3-1-5.4c0-2.2,0.4-4.1,1.3-5.8s2.1-3.1,3.6-4.3s3.4-2,5.6-2.6s4.6-0.9,7.3-0.9
		c3,0,5.8,0.3,8.3,1s4.9,1.5,7.1,2.6l-3,6.9c-2-0.9-4.1-1.7-6.3-2.4s-4.3-1-6.5-1c-3.2,0-5.5,0.5-7.1,1.6s-2.3,2.5-2.3,4.5
		c0,1.1,0.2,2,0.5,2.9s1,1.6,1.9,2.3s2,1.4,3.5,2.2s3.3,1.6,5.5,2.5c2.3,0.9,4.3,1.9,6,2.8s3.3,2,4.5,3.2s2.2,2.5,2.9,4
		S3214.6,961.7,3214.6,963.8z"/>
        <path d="M3246.8,978.8c-3.2,0-6.1-0.5-8.9-1.5s-5.1-2.5-7.2-4.7s-3.6-4.9-4.8-8.2s-1.7-7.3-1.7-12c0-4.9,0.6-9.1,1.8-12.5
		s2.8-6.2,4.9-8.3s4.5-3.7,7.3-4.7s5.8-1.5,9-1.5c2.4,0,4.8,0.3,7.1,0.8s4.3,1.2,5.8,2l-2.5,7.2c-0.7-0.3-1.5-0.6-2.4-0.9
		s-1.8-0.6-2.7-0.8s-1.9-0.4-2.8-0.6s-1.8-0.2-2.6-0.2c-4.9,0-8.5,1.6-10.7,4.7s-3.4,8-3.4,14.6c0,6.6,1.1,11.4,3.4,14.5
		s5.7,4.6,10.3,4.6c2.5,0,4.8-0.3,6.9-0.9s3.9-1.3,5.6-2v7.6c-1.7,0.9-3.5,1.6-5.4,2.1S3249.6,978.8,3246.8,978.8z"/>
        <path d="M3303.7,977.9v-33.1c0-4.1-0.8-7.1-2.5-9.1s-4.2-3-7.7-3c-2.5,0-4.7,0.4-6.4,1.2s-3.1,2-4.1,3.6s-1.8,3.5-2.3,5.9
		s-0.7,5-0.7,8v26.7h-8.5v-72.9h8.5v21.7l-0.4,6.8h0.5c0.8-1.3,1.7-2.5,2.8-3.5s2.3-1.8,3.5-2.5s2.6-1.1,4.1-1.5s2.9-0.5,4.4-0.5
		c5.7,0,10,1.5,12.9,4.5s4.3,7.8,4.3,14.3v33.6H3303.7z"/>
        <path d="M3348.4,978.8c-3.4,0-6.6-0.6-9.4-1.7s-5.3-2.8-7.3-5.1s-3.6-5-4.8-8.3s-1.7-7-1.7-11.3c0-4.3,0.5-8,1.5-11.4
		s2.5-6.2,4.4-8.5s4.1-4.1,6.7-5.3s5.5-1.8,8.6-1.8c3.1,0,5.9,0.6,8.3,1.7s4.6,2.7,6.3,4.7s3,4.4,4,7.3s1.4,6,1.4,9.4v5.3H3334
		c0.2,6,1.4,10.5,3.8,13.3s5.9,4.3,10.7,4.3c1.6,0,3.1-0.1,4.4-0.2s2.7-0.4,3.9-0.7s2.5-0.7,3.7-1.1s2.4-1,3.6-1.5v7.6
		c-1.3,0.6-2.5,1.1-3.7,1.5s-2.4,0.8-3.7,1.1s-2.6,0.5-3.9,0.6S3350,978.8,3348.4,978.8z M3346.3,932.5c-3.6,0-6.4,1.2-8.5,3.7
		s-3.3,6-3.6,10.6h23.1c0-2.1-0.2-4.1-0.6-5.8s-1.1-3.3-2-4.5s-2-2.2-3.4-2.9S3348.2,932.5,3346.3,932.5z"/>
        <path d="M3405.6,909.3h18.7c4,0,7.5,0.3,10.6,0.9s5.6,1.6,7.6,3s3.6,3.1,4.6,5.3s1.5,4.9,1.5,8.1c0,1.9-0.3,3.8-0.9,5.4
		s-1.5,3.2-2.6,4.5s-2.6,2.4-4.3,3.2s-3.6,1.4-5.8,1.7v0.5c2.2,0.4,4.2,0.9,6.1,1.6s3.5,1.7,4.9,2.9s2.5,2.8,3.3,4.7
		s1.2,4.2,1.2,6.8c0,3.1-0.5,5.9-1.5,8.4s-2.5,4.5-4.4,6.2s-4.3,3-7,3.9s-5.9,1.4-9.3,1.4h-22.7V909.3z M3414.3,938.4h11.4
		c2.6,0,4.8-0.2,6.6-0.7s3.2-1.2,4.3-2.1s1.9-2.1,2.4-3.5s0.7-3,0.7-4.9c0-3.8-1.2-6.4-3.6-8.1s-6.2-2.4-11.4-2.4h-10.5V938.4z
		 M3414.3,945.7v24.8h12.5c2.8,0,5.1-0.3,6.9-0.9s3.4-1.5,4.5-2.6s2-2.5,2.5-4.1s0.8-3.3,0.8-5.2c0-1.8-0.3-3.4-0.8-4.8
		s-1.4-2.7-2.5-3.8s-2.7-1.9-4.7-2.4s-4.3-0.9-7.2-0.9H3414.3z"/>
        <path d="M3484.4,978.8c-3.4,0-6.6-0.6-9.4-1.7s-5.3-2.8-7.3-5.1s-3.6-5-4.8-8.3s-1.7-7-1.7-11.3c0-4.3,0.5-8,1.5-11.4
		s2.5-6.2,4.4-8.5s4.1-4.1,6.7-5.3s5.5-1.8,8.6-1.8c3.1,0,5.9,0.6,8.3,1.7s4.6,2.7,6.3,4.7s3,4.4,4,7.3s1.4,6,1.4,9.4v5.3H3470
		c0.2,6,1.4,10.5,3.8,13.3s5.9,4.3,10.7,4.3c1.6,0,3.1-0.1,4.4-0.2s2.7-0.4,3.9-0.7s2.5-0.7,3.7-1.1s2.4-1,3.6-1.5v7.6
		c-1.3,0.6-2.5,1.1-3.7,1.5s-2.4,0.8-3.7,1.1s-2.6,0.5-3.9,0.6S3485.9,978.8,3484.4,978.8z M3482.2,932.5c-3.6,0-6.4,1.2-8.5,3.7
		s-3.3,6-3.6,10.6h23.1c0-2.1-0.2-4.1-0.6-5.8s-1.1-3.3-2-4.5s-2-2.2-3.4-2.9S3484.2,932.5,3482.2,932.5z"/>
        <path d="M3537.6,925.5c0.9,0,1.9,0,3,0.1s2.1,0.2,2.9,0.4l-1.1,7.9c-0.9-0.2-1.8-0.3-2.7-0.4s-1.8-0.2-2.6-0.2
		c-2,0-3.8,0.4-5.4,1.2s-3,1.9-4.2,3.4s-2.1,3.3-2.7,5.3s-1,4.4-1,6.9v27.8h-8.5v-51.5h6.9l1,9.4h0.4c0.8-1.3,1.6-2.6,2.5-3.9
		s1.9-2.4,3-3.3s2.4-1.7,3.7-2.3S3535.9,925.5,3537.6,925.5z"/>
        <path d="M3553,912.5c0-1.9,0.5-3.2,1.4-4.1s2.1-1.3,3.5-1.3c0.7,0,1.3,0.1,1.9,0.3s1.1,0.5,1.6,1s0.8,1,1.1,1.7s0.4,1.5,0.4,2.4
		c0,1.8-0.5,3.2-1.5,4.1s-2.2,1.3-3.5,1.3c-1.4,0-2.6-0.4-3.5-1.3S3553,914.3,3553,912.5z M3562.2,977.9h-8.5v-51.5h8.5V977.9z"/>
        <path d="M3598.2,978.8c-3.2,0-6.1-0.5-8.9-1.5s-5.1-2.5-7.2-4.7s-3.6-4.9-4.8-8.2s-1.7-7.3-1.7-12c0-4.9,0.6-9.1,1.8-12.5
		s2.8-6.2,4.9-8.3s4.5-3.7,7.3-4.7s5.8-1.5,9-1.5c2.4,0,4.8,0.3,7.1,0.8s4.3,1.2,5.8,2l-2.5,7.2c-0.7-0.3-1.5-0.6-2.4-0.9
		s-1.8-0.6-2.7-0.8s-1.9-0.4-2.8-0.6s-1.8-0.2-2.6-0.2c-4.9,0-8.5,1.6-10.7,4.7s-3.4,8-3.4,14.6c0,6.6,1.1,11.4,3.4,14.5
		s5.7,4.6,10.3,4.6c2.5,0,4.8-0.3,6.9-0.9s3.9-1.3,5.6-2v7.6c-1.7,0.9-3.5,1.6-5.4,2.1S3601,978.8,3598.2,978.8z"/>
        <path d="M3655.1,977.9v-33.1c0-4.1-0.8-7.1-2.5-9.1s-4.2-3-7.7-3c-2.5,0-4.7,0.4-6.4,1.2s-3.1,2-4.1,3.6s-1.8,3.5-2.3,5.9
		s-0.7,5-0.7,8v26.7h-8.5v-72.9h8.5v21.7l-0.4,6.8h0.5c0.8-1.3,1.7-2.5,2.8-3.5s2.3-1.8,3.5-2.5s2.6-1.1,4.1-1.5s2.9-0.5,4.4-0.5
		c5.7,0,10,1.5,12.9,4.5s4.3,7.8,4.3,14.3v33.6H3655.1z"/>
        <path d="M3695.1,971.8c0.6,0,1.2,0,1.9-0.1s1.4-0.1,2-0.2s1.3-0.2,1.8-0.3s1-0.2,1.2-0.3v6.5c-0.4,0.2-0.9,0.4-1.5,0.6
		s-1.3,0.4-2.1,0.5s-1.5,0.3-2.3,0.3s-1.6,0.1-2.4,0.1c-1.9,0-3.7-0.3-5.4-0.8s-3.1-1.4-4.3-2.6s-2.1-2.9-2.8-4.9s-1-4.7-1-7.9
		v-29.9h-7.3V929l7.3-3.7l3.7-10.8h4.9v11.8h12.9v6.4h-12.9v29.9c0,3,0.5,5.3,1.5,6.8S3692.8,971.8,3695.1,971.8z"/>
        <path d="M3732.4,978.8c-3.4,0-6.6-0.6-9.4-1.7s-5.3-2.8-7.3-5.1s-3.6-5-4.8-8.3s-1.7-7-1.7-11.3c0-4.3,0.5-8,1.5-11.4
		s2.5-6.2,4.4-8.5s4.1-4.1,6.7-5.3s5.5-1.8,8.6-1.8c3.1,0,5.9,0.6,8.3,1.7s4.6,2.7,6.3,4.7s3,4.4,4,7.3s1.4,6,1.4,9.4v5.3H3718
		c0.2,6,1.4,10.5,3.8,13.3s5.9,4.3,10.7,4.3c1.6,0,3.1-0.1,4.4-0.2s2.7-0.4,3.9-0.7s2.5-0.7,3.7-1.1s2.4-1,3.6-1.5v7.6
		c-1.3,0.6-2.5,1.1-3.7,1.5s-2.4,0.8-3.7,1.1s-2.6,0.5-3.9,0.6S3734,978.8,3732.4,978.8z M3730.3,932.5c-3.6,0-6.4,1.2-8.5,3.7
		s-3.3,6-3.6,10.6h23.1c0-2.1-0.2-4.1-0.6-5.8s-1.1-3.3-2-4.5s-2-2.2-3.4-2.9S3732.2,932.5,3730.3,932.5z"/>
</g>
    <g class="st0">
	<path d="M4183.3,558.9c0,5.8-0.8,10.9-2.3,15.2s-3.7,8-6.5,10.9c-2.8,2.9-6.3,5.1-10.5,6.6c-4.1,1.5-8.8,2.2-14.1,2.2h-17.2v-68.5
		h19.1c4.8,0,9.1,0.7,13,2.2c3.9,1.4,7.2,3.6,9.9,6.4s4.8,6.3,6.3,10.5C4182.6,548.6,4183.3,553.4,4183.3,558.9z M4174.1,559.2
		c0-4.6-0.5-8.5-1.5-11.8s-2.5-6.1-4.5-8.2s-4.4-3.8-7.3-4.8c-2.9-1-6.1-1.6-9.8-1.6h-9.4v53.6h7.6c8.3,0,14.5-2.3,18.7-6.8
		C4172,575,4174.1,568.2,4174.1,559.2z"/>
        <path d="M4226.4,593.9l-1.7-7.1h-0.4c-1,1.4-2.1,2.6-3.1,3.6s-2.2,1.9-3.4,2.5s-2.6,1.1-4.1,1.5s-3.2,0.5-5.2,0.5
		c-2.2,0-4.1-0.3-6-0.9c-1.8-0.6-3.4-1.5-4.7-2.8c-1.3-1.3-2.4-2.9-3.1-4.8s-1.1-4.2-1.1-6.8c0-5.1,1.8-9.1,5.4-11.8
		s9.1-4.3,16.5-4.5l8.6-0.3v-3.2c0-2.1-0.2-3.8-0.7-5.3c-0.5-1.4-1.1-2.5-2-3.4c-0.9-0.9-1.9-1.5-3.2-1.9s-2.7-0.6-4.3-0.6
		c-2.6,0-5,0.4-7.2,1.1c-2.2,0.8-4.4,1.7-6.4,2.7l-3-6.4c2.3-1.3,4.9-2.3,7.7-3.2c2.8-0.9,5.8-1.3,9-1.3c3.2,0,5.9,0.3,8.3,1
		c2.3,0.6,4.2,1.7,5.8,3c1.5,1.4,2.6,3.2,3.4,5.3s1.1,4.8,1.1,7.8v35.3H4226.4z M4210.7,587.9c1.9,0,3.7-0.3,5.3-0.9
		c1.6-0.6,3-1.5,4.2-2.7c1.2-1.2,2.1-2.7,2.8-4.5c0.7-1.8,1-4,1-6.4v-4.6l-6.7,0.3c-2.8,0.1-5.2,0.4-7.1,0.9
		c-1.9,0.5-3.4,1.2-4.6,2.1c-1.1,0.9-2,2-2.5,3.2c-0.5,1.3-0.8,2.7-0.8,4.3c0,2.9,0.8,5,2.3,6.3
		C4206.3,587.2,4208.2,587.9,4210.7,587.9z"/>
        <path d="M4285.6,575.5c0,3-0.5,5.7-1.6,8.1s-2.6,4.4-4.6,6.1c-2,1.7-4.4,2.9-7.3,3.8c-2.9,0.9-6.1,1.3-9.7,1.3
		c-3.5,0-6.7-0.3-9.7-0.8c-3-0.5-5.5-1.4-7.6-2.4v-8.3c1.1,0.5,2.3,1,3.6,1.5s2.8,0.9,4.3,1.3s3,0.7,4.6,0.9s3.2,0.4,4.7,0.4
		c5,0,8.7-0.9,11.1-2.8s3.6-4.6,3.6-8.1c0-1.7-0.2-3.2-0.7-4.4c-0.5-1.3-1.3-2.4-2.4-3.4c-1.1-1-2.7-2.1-4.6-3
		c-1.9-1-4.3-2.1-7.2-3.2c-2.8-1.1-5.2-2.3-7.2-3.6c-2-1.3-3.7-2.8-5.1-4.4c-1.3-1.6-2.3-3.5-3-5.5c-0.6-2.1-1-4.4-1-7
		c0-2.8,0.5-5.2,1.5-7.4c1-2.2,2.4-4,4.2-5.5c1.8-1.5,4-2.6,6.5-3.4c2.5-0.8,5.3-1.2,8.3-1.2c3.7,0,7.1,0.4,10,1.1
		c3,0.7,5.6,1.6,7.9,2.7l-3.1,7.3c-2-0.9-4.3-1.7-6.9-2.4s-5.2-1-8-1c-3.8,0-6.8,0.9-8.9,2.6c-2.1,1.8-3.1,4.1-3.1,7.1
		c0,1.8,0.2,3.3,0.7,4.6s1.2,2.5,2.3,3.5c1.1,1,2.5,2,4.3,3c1.8,0.9,4,1.9,6.6,2.9c2.8,1.1,5.3,2.3,7.5,3.5c2.1,1.2,3.9,2.5,5.4,4
		c1.4,1.5,2.5,3.2,3.3,5.2C4285.2,570.5,4285.6,572.9,4285.6,575.5z"/>
        <path d="M4327.2,532c-3.3,0-6.4,0.6-9.1,1.9s-5,3.1-7,5.5s-3.4,5.3-4.5,8.7c-1,3.4-1.6,7.3-1.6,11.5c0,4.4,0.5,8.3,1.4,11.7
		c0.9,3.4,2.3,6.3,4.1,8.6c1.8,2.3,4.1,4.1,6.9,5.3c2.7,1.2,6,1.8,9.7,1.8c2.8,0,5.4-0.3,7.9-0.8c2.5-0.5,5-1.2,7.4-1.9v7.6
		c-1.2,0.5-2.4,0.9-3.7,1.2s-2.5,0.6-3.8,0.9c-1.3,0.2-2.8,0.4-4.3,0.5c-1.5,0.1-3.2,0.2-5,0.2c-5.1,0-9.6-0.8-13.3-2.5
		s-6.9-4.1-9.3-7.2c-2.5-3.1-4.3-6.8-5.5-11.2c-1.2-4.3-1.8-9.2-1.8-14.4c0-5.2,0.7-9.9,2-14.3s3.4-8,6-11.1
		c2.6-3.1,5.9-5.5,9.8-7.2c3.9-1.7,8.4-2.6,13.5-2.6c3.4,0,6.6,0.3,9.7,1c3.1,0.7,5.8,1.7,8.3,3l-3.7,7.3c-2-1-4.1-1.9-6.4-2.6
		C4332.7,532.4,4330.1,532,4327.2,532z"/>
        <path d="M4405.9,593.9h-8.7v-32h-31.2v32h-8.7v-68.5h8.7v28.9h31.2v-28.9h8.7V593.9z"/>
</g>
    <g class="st0">
	<path d="M4127.4,682.8c0-3.9,0.3-7.8,0.8-11.6s1.4-7.5,2.6-11.1c1.2-3.6,2.6-7,4.4-10.3c1.8-3.3,3.9-6.4,6.3-9.3h8.1
		c-4.4,6-7.7,12.7-10,19.9c-2.3,7.2-3.4,14.6-3.4,22.3c0,3.7,0.3,7.4,0.9,11.1c0.6,3.7,1.4,7.3,2.5,10.8c1.1,3.5,2.5,7,4.1,10.3
		c1.7,3.3,3.6,6.4,5.7,9.4h-8c-2.4-2.8-4.5-5.8-6.3-9c-1.8-3.2-3.2-6.6-4.4-10.1c-1.2-3.5-2-7.1-2.6-10.9S4127.4,686.6,4127.4,682.8
		z"/>
        <path d="M4208,709.1h-9.9l-21.1-32.7l-6.5,5.3v27.4h-8.7v-68.5h8.7v34.3l5.7-7.9l21.2-26.4h9.8l-24.4,29.9L4208,709.1z"/>
        <path d="M4248.3,709.1v-33.1c0-4.1-0.8-7.1-2.5-9.1s-4.2-3-7.7-3c-2.5,0-4.7,0.4-6.4,1.2c-1.7,0.8-3.1,2-4.1,3.6
		c-1,1.6-1.8,3.5-2.3,5.9c-0.5,2.3-0.7,5-0.7,8v26.7h-8.5v-51.5h6.9l1.2,6.9h0.5c0.8-1.3,1.7-2.5,2.8-3.5s2.3-1.8,3.5-2.5
		c1.3-0.7,2.6-1.1,4.1-1.5c1.4-0.3,2.9-0.5,4.4-0.5c5.7,0,10,1.5,12.9,4.5c2.9,3,4.3,7.8,4.3,14.3v33.6H4248.3z"/>
        <path d="M4314.6,683.2c0,4.3-0.5,8.1-1.6,11.4c-1,3.3-2.5,6.1-4.5,8.4c-2,2.3-4.3,4-7.1,5.2c-2.8,1.2-5.9,1.8-9.4,1.8
		c-3.2,0-6.2-0.6-8.9-1.8s-5.1-2.9-7.1-5.2c-2-2.3-3.5-5.1-4.6-8.4c-1.1-3.3-1.7-7.1-1.7-11.4c0-4.3,0.5-8,1.6-11.3
		c1-3.3,2.5-6.1,4.5-8.3c1.9-2.3,4.3-4,7.1-5.2c2.8-1.2,5.9-1.8,9.4-1.8c3.2,0,6.2,0.6,8.9,1.8s5.1,2.9,7.1,5.2c2,2.3,3.5,5,4.6,8.3
		C4314.1,675.2,4314.6,679,4314.6,683.2z M4278.6,683.2c0,6.5,1.1,11.4,3.2,14.7c2.1,3.3,5.6,4.9,10.4,4.9c4.8,0,8.3-1.6,10.4-4.9
		s3.2-8.2,3.2-14.7s-1.1-11.4-3.2-14.6c-2.1-3.2-5.6-4.9-10.4-4.9c-4.8,0-8.3,1.6-10.4,4.9S4278.6,676.7,4278.6,683.2z"/>
        <path d="M4350.4,656.7c0.9,0,1.9,0,3,0.1s2.1,0.2,2.9,0.4l-1.1,7.9c-0.9-0.2-1.8-0.3-2.7-0.4c-0.9-0.1-1.8-0.2-2.6-0.2
		c-2,0-3.8,0.4-5.4,1.2c-1.6,0.8-3,1.9-4.2,3.4s-2.1,3.3-2.7,5.3c-0.6,2.1-1,4.4-1,6.9v27.8h-8.5v-51.5h6.9l1,9.4h0.4
		c0.8-1.3,1.6-2.6,2.5-3.9s1.9-2.4,3-3.3c1.1-1,2.4-1.7,3.7-2.3C4347,657,4348.6,656.7,4350.4,656.7z"/>
        <path d="M4394.5,709.1l-1.7-7.1h-0.4c-1,1.4-2.1,2.6-3.1,3.6s-2.2,1.9-3.4,2.5s-2.6,1.1-4.1,1.5s-3.2,0.5-5.2,0.5
		c-2.2,0-4.1-0.3-6-0.9c-1.8-0.6-3.4-1.5-4.7-2.8c-1.3-1.3-2.4-2.9-3.1-4.8s-1.1-4.2-1.1-6.8c0-5.1,1.8-9.1,5.4-11.8
		s9.1-4.3,16.5-4.5l8.6-0.3v-3.2c0-2.1-0.2-3.8-0.7-5.3c-0.5-1.4-1.1-2.5-2-3.4c-0.9-0.9-1.9-1.5-3.2-1.9s-2.7-0.6-4.3-0.6
		c-2.6,0-5,0.4-7.2,1.1c-2.2,0.8-4.4,1.7-6.4,2.7l-3-6.4c2.3-1.3,4.9-2.3,7.7-3.2c2.8-0.9,5.8-1.3,9-1.3c3.2,0,5.9,0.3,8.3,1
		c2.3,0.6,4.2,1.7,5.8,3c1.5,1.4,2.6,3.2,3.4,5.3s1.1,4.8,1.1,7.8v35.3H4394.5z M4378.8,703.1c1.9,0,3.7-0.3,5.3-0.9
		c1.6-0.6,3-1.5,4.2-2.7c1.2-1.2,2.1-2.7,2.8-4.5c0.7-1.8,1-4,1-6.4v-4.6l-6.7,0.3c-2.8,0.1-5.2,0.4-7.1,0.9
		c-1.9,0.5-3.4,1.2-4.6,2.1c-1.1,0.9-2,2-2.5,3.2c-0.5,1.3-0.8,2.7-0.8,4.3c0,2.9,0.8,5,2.3,6.3
		C4374.3,702.4,4376.3,703.1,4378.8,703.1z"/>
        <path d="M4433.3,682.8c0,3.9-0.3,7.7-0.8,11.4s-1.4,7.4-2.6,10.9s-2.6,6.9-4.4,10.1c-1.8,3.2-3.9,6.2-6.3,9h-8
		c2.2-2.9,4.1-6.1,5.7-9.4c1.7-3.3,3-6.7,4.2-10.3s2-7.1,2.5-10.8s0.8-7.4,0.8-11.1c0-7.6-1.1-15-3.4-22.3s-5.6-13.8-10-19.9h8.1
		c2.4,2.9,4.5,6,6.3,9.3c1.8,3.3,3.2,6.7,4.4,10.3s2,7.3,2.6,11.1S4433.3,678.9,4433.3,682.8z"/>
</g>
    <g class="st0">
	<path d="M135,525.2v44.4c0,3.6-0.5,6.9-1.5,9.9s-2.6,5.7-4.7,8c-2.1,2.3-4.7,4-7.8,5.3s-6.8,1.9-11.1,1.9c-4,0-7.5-0.6-10.6-1.8
		c-3.1-1.2-5.6-2.9-7.7-5.1c-2.1-2.2-3.6-4.9-4.7-8c-1.1-3.1-1.6-6.6-1.6-10.4v-44.2H94V570c0,5.5,1.4,9.7,4.1,12.7
		c2.7,3,6.8,4.5,12.3,4.5c2.8,0,5.2-0.4,7.2-1.3c2-0.8,3.6-2,4.9-3.6c1.3-1.5,2.2-3.4,2.9-5.5c0.6-2.1,1-4.5,1-7v-44.6H135z"/>
        <path d="M188.5,593.9H153v-68.5h35.6v7.7h-26.9v21.2h25.1v7.6h-25.1v24.4h26.9V593.9z"/>
</g>
    <g>
	<path d="M916.8,247.7c-4,256,0,200,0,200"/>
        <g>
		<path class="st1" d="M916.8,247.7c-1.5,94.9-1.9,146.9-1.8,174.8"/>
            <g>
			<polygon class="st2" points="944.5,417.2 886.3,420 916.8,447.7 			"/>
		</g>
	</g>
</g>
    <rect x="610.8" y="493.7" class="st3" width="608" height="144"/>
    <rect x="3006.8" y="493.7" class="st3" width="700" height="144"/>
    <g>
	<g>
		<line class="st4" x1="494.8" y1="565.7" x2="362.9" y2="565.7"/>
        <g>
			<polygon class="st2" points="376,662.9 376,468.5 278.8,565.7 			"/>
		</g>
	</g>
</g>
    <g>
	<g>
		<line class="st4" x1="3928.7" y1="567.7" x2="3796.8" y2="567.7"/>
        <g>
			<polygon class="st2" points="3915.6,664.9 3915.6,470.5 4012.8,567.7 			"/>
		</g>
	</g>
</g>
    <g>
	<path d="M3356.2,225.7c-4,256,0,200,0,200"/>
        <g>
		<path class="st1" d="M3356.2,225.7c-1.5,94.9-1.9,146.9-1.8,174.8"/>
            <g>
			<polygon class="st2" points="3383.9,395.2 3325.7,398 3356.2,425.7 			"/>
		</g>
	</g>
</g>
    <g>
	<path d="M916.2,677.7c-4,256,0,200,0,200"/>
        <g>
		<path class="st1" d="M915.8,703c-3.4,227,0.4,174.8,0.4,174.8"/>
            <g>
			<polygon class="st2" points="945.1,707.1 886.8,706.7 916.2,677.7 			"/>
		</g>
	</g>
</g>
    <g>
	<path d="M3355,677.7c-4,256,0,200,0,200"/>
        <g>
		<path class="st1" d="M3354.6,703c-3.4,227,0.4,174.8,0.4,174.8"/>
            <g>
			<polygon class="st2" points="3384,707.1 3325.6,706.7 3355,677.7 			"/>
		</g>
	</g>
</g>
    <g>
	<line class="st5" x1="1296.8" y1="435.7" x2="1824.8" y2="247.7"/>
        <g>
		<line class="st1" x1="1320.6" y1="427.3" x2="1824.8" y2="247.7"/>
            <g>
			<polygon class="st2" points="1314.5,398.5 1334,453.4 1296.8,435.7 			"/>
		</g>
	</g>
</g>
    <g>
	<line class="st5" x1="2446.8" y1="247.7" x2="2900.8" y2="435.7"/>
        <g>
		<line class="st1" x1="2446.8" y1="247.7" x2="2877.5" y2="426.1"/>
            <g>
			<polygon class="st2" points="2885,397.7 2862.7,451.5 2900.8,435.7 			"/>
		</g>
	</g>
</g>
    <g>
	<line class="st5" x1="1296.8" y1="883.7" x2="2902.8" y2="676.8"/>
        <g>
		<line class="st1" x1="1296.8" y1="883.7" x2="2877.8" y2="680"/>
            <g>
			<polygon class="st2" points="2870.2,651.6 2877.6,709.4 2902.8,676.8 			"/>
		</g>
	</g>
</g>
    <g>
	<line class="st5" x1="1296.8" y1="675.7" x2="2902.8" y2="883.7"/>
        <g>
		<line class="st1" x1="1321.8" y1="679" x2="1345.6" y2="682.1"/>
            <line class="st6" x1="1359.3" y1="683.8" x2="2886.5" y2="883.7"/>
            <g>
			<polygon class="st2" points="1329.4,650.6 1322,708.4 1296.8,675.7 			"/>
		</g>
	</g>
</g>
</svg>
